<svg width="512" height="512" viewBox="0 0 512 512" fill="none" xmlns="http://www.w3.org/2000/svg">
<g clip-path="url(#clip0_67_9)">
<path d="M1.00001 323.4C6.57037 320.902 12.2113 318.971 17.6937 316.663C24.9948 313.59 32.1725 310.224 39.3893 306.99C38.9192 301.398 38.6528 295.865 37.9377 290.391C37.2299 284.974 40.194 281.771 44.4528 280.059C50.9907 277.43 57.8382 275.573 64.5705 273.382C64.3385 270.658 64.0191 266.907 63.7021 263.184C51.7747 265.869 41.3751 261.98 32.62 254.766C25.363 248.787 19.4126 241.215 12.9273 234.308C9.57173 230.734 13.0852 228.68 15.2358 227.539C25.1134 222.299 35.4857 220.052 46.1988 225.053C56.309 229.773 63.1752 237.337 66.5303 248.367C64.9902 239.496 63.5927 230.595 61.7383 221.79C61.4934 220.626 59.0262 219.571 57.4059 219.119C50.0171 217.058 43.8296 213.163 38.2085 207.993C36.6627 206.571 33.8512 206.524 32.2074 206.025C30.5446 202.381 29.0032 198.366 26.9478 194.633C22.8115 187.122 19.6726 179.568 19.8017 170.621C19.9086 163.216 21.1322 160.299 31.1781 160.529C31.1781 157.09 31.1781 153.658 31.1781 150.226C31.7301 150.168 32.2821 150.11 32.8341 150.052C33.0085 153.506 33.1829 156.959 33.3596 160.456C37.5089 162.884 41.1738 161.142 45.1387 159.578C72.9452 148.606 100.805 137.77 128.692 127.003C140.935 122.276 140.983 122.397 140.984 109.421C140.985 75.7759 140.984 42.1311 140.984 7.82658C105.088 21.1007 69.5555 34.2403 33.61 47.5327C33.3698 49.4725 32.9674 52.7222 32.5651 55.9719C32.1955 55.9393 31.8259 55.9066 31.4563 55.874C31.4563 48.3888 31.4563 40.9035 31.4563 33.4183C31.8081 33.3602 32.1599 33.302 32.5116 33.2438C32.6826 34.3529 32.9198 35.4567 33.0072 36.5722C33.111 37.8969 32.9914 39.2421 33.1357 40.5601C33.4803 43.7075 34.4834 44.4763 37.9506 43.1422C61.9489 33.9084 86.0504 24.9405 110.168 16.0206C121.534 11.8168 133.02 7.93642 144.42 3.82183C145.583 3.40199 146.528 2.37808 147.287 1.31725C148.714 1 150.429 1 152.5 1.46482C152.757 9.91132 152.564 17.8931 152.573 25.8747C152.609 57.9993 152.568 90.1255 152.93 122.247C152.985 127.127 150.835 128.923 147.025 130.444C115.151 143.171 83.3018 155.959 51.4449 168.728C52.2967 169.411 53.2861 169.653 54.0914 169.371C58.3682 167.871 62.6297 166.316 66.8403 164.64C93.3788 154.074 119.921 143.516 146.404 132.812C149.181 131.689 151.578 129.624 154.488 127.999C155.5 128 156.175 127.998 157.009 128.339C162.703 130.786 168.236 132.89 174.167 135.145C174.167 120.522 174.184 106.401 174.164 92.2809C174.12 61.8539 174.056 31.427 174 1C174.75 1 175.5 1 176.625 1C177 45.7913 177 90.5825 177 135.256C177.393 135.554 177.607 135.776 177.867 135.905C180.556 137.24 184.907 137.999 185.588 140.006C186.856 143.744 186.169 148.219 185.881 152.358C185.81 153.381 184.322 154.709 183.185 155.194C159.127 165.469 135.042 175.682 110.926 185.822C97.859 191.317 84.6991 196.593 71.6651 202.165C70.3813 202.714 69.3527 204.513 68.7854 205.96C67.2606 209.847 66.0459 213.857 64.7181 217.821C64.4667 218.572 63.9758 219.379 64.0782 220.091C65.7381 231.62 67.467 243.139 69.2376 254.652C69.2941 255.02 69.9606 255.294 70.5294 255.766C72.0913 250.294 72.3515 245.232 70.6189 239.604C66.5552 226.405 72.2362 212.207 84.0749 204.422C97.6049 195.525 111.866 193.436 127.114 200.347C119.754 210.429 112.538 220.365 105.264 230.259C99.5557 238.024 93.0477 245.549 83.1904 246.966C74.5574 248.207 73.2001 253.04 72.8118 260.006C72.5515 264.678 71.5217 269.306 70.8361 273.954C71.3037 274.115 71.7713 274.275 72.2389 274.436C72.9479 273.054 73.8775 271.741 74.3303 270.28C77.2975 260.705 82.9104 253.94 93.6226 252.42C94.0042 253.457 94.0074 254.106 93.6329 254.874C88.176 255.847 83.9272 258.056 80.1219 262.813C94.4178 257.649 107.74 264.214 111.271 271.982C106.101 269.36 101.087 265.756 95.5095 264.278C89.495 262.683 82.7988 262.505 78.2055 268.451C90.1251 279.235 104.137 280.105 119.379 277.944C118.874 275.071 118.429 272.538 118.342 270.006C119.417 270.002 120.134 269.997 120.936 270.411C121.467 274.333 121.914 277.836 122.384 281.521C113.545 281.521 105.467 281.521 98.0429 281.521C104.432 293.317 97.0116 305.533 98.2456 317.474C109.621 322.561 120.946 327.681 132.338 332.648C133.792 333.282 135.837 333.74 137.191 333.211C142.178 331.261 146.989 328.862 152.602 326.296C148.385 324.322 144.92 322.652 141.414 321.071C136.132 318.689 130.934 316.06 125.501 314.084C111.064 308.834 109.342 306.521 110.548 291.783C111.665 291.53 112.396 291.29 113.074 291.436C113.848 292.827 114.472 294.293 115.537 294.767C131.539 301.887 147.588 308.903 163.648 315.891C186.494 325.83 209.541 335.334 232.13 345.824C241.704 350.27 250.37 350.041 259.514 345.836C269.203 341.38 278.918 336.982 289.114 332.334C286.484 331.814 284.251 331.595 282.175 330.902C279.902 330.144 277.744 329.008 275.588 327.932C268.532 324.41 267.693 317.574 274.258 313.505C277.025 311.789 277.141 310.107 277.008 307.578C276.771 303.091 276.559 298.779 280.866 295.457C286.717 290.944 300.44 290.598 305.858 295.295C307.332 296.573 308.727 298.022 310.394 298.98C318.626 303.71 319.378 306.719 313.997 314.26C315.24 315.736 316.48 317.209 317.788 318.764C326.935 314.304 336.293 309.86 345.511 305.141C347.285 304.233 349.802 302.105 349.66 300.79C349.477 299.099 347.222 297.133 345.392 296.214C340.365 293.688 335.232 291.207 329.886 289.513C321.052 286.713 313.407 280.044 303.255 280.649C303.113 279.72 303.061 279.348 303.403 278.903C304.568 278.564 305.321 278.194 306.114 278.045C317.003 276.003 328.049 274.58 338.747 271.81C349.984 268.901 359.225 262.967 362.765 250.718C365.856 240.027 366.034 229.065 364.733 218.319C363.48 207.97 360.538 197.333 351.235 191.104C344.018 186.271 335.637 183.175 327.306 179.077C326.979 192.352 319.437 200.614 312.972 208.491C305.941 207.89 306.414 197.276 298.118 199.242C297.715 211.725 298.583 223.953 296.094 236.089C294.773 234.542 294.151 232.935 294.184 231.342C294.358 222.914 294.291 214.449 295.119 206.078C295.689 200.317 292.594 198.606 287.009 196.636C287.009 209.677 287.051 221.949 286.949 234.22C286.938 235.612 286.114 236.997 285.666 238.385C285.274 238.218 284.882 238.052 284.49 237.886C284.49 224.416 284.49 210.946 284.49 197.442C282.253 198.987 280.059 200.503 277.765 202.086C276.697 198.727 280.612 194.922 275.983 192.348C275.981 191.356 275.986 190.694 275.991 190.032C292.984 190.913 303.213 182.565 307.786 166.694C305.266 164.35 302.704 161.965 300.786 160.181C298.271 162.562 295.664 165.37 292.707 167.74C289.398 170.392 285.883 170.496 281.815 168.594C278.794 167.181 274.267 166.915 270.5 166C270.117 164.847 270.128 164.538 270.5 163.5C274.334 161.917 278.139 163.074 281.162 164.542C283.17 165.517 285.36 166.938 287.414 166.853C295.881 166.502 301.93 154.222 297.558 146.978C296.698 145.553 296.602 143.666 296.489 141.997C297.495 141.999 298.165 141.996 298.981 142.323C299.719 143.487 300.312 144.321 300.968 145.246C302.753 142.987 304.311 141.017 306.219 139.035C307.27 139.011 307.97 139 308.829 139.4C308.987 140.612 308.987 141.413 308.987 142.443C311.531 141.301 313.8 140.284 316.456 139.092C315.987 134.753 315.748 130.319 314.985 125.977C313.669 118.481 310.647 111.419 304.822 106.61C296.925 100.088 287.765 95.839 276.992 96.6303C276.994 95.6427 276.991 94.9843 276.988 94.3259C281.189 94.0823 284.986 93.3507 288.791 90.8519C298.247 84.6422 309.173 90.6453 314.059 99.6851C316.143 103.54 317.5 106 318.5 111C318.5 115.5 316.646 119.46 317.5 122.5C318.276 125.263 319.452 130.595 319.824 133.5C320.392 137.933 323.668 138.939 325.212 143.038C327.376 148.783 326.014 157.445 320.986 162.533C318.552 164.994 316.246 167.418 321.575 169.213C322.004 169.357 322.522 169.792 322.646 170.2C325.031 178.009 332.419 178.567 338.423 180.925C351.061 185.888 361.212 193.161 365.157 207.042C365.595 208.583 367.436 209.978 368.951 210.912C373.062 213.446 377.641 215.295 381.504 218.137C390.248 224.568 390.134 234.179 388.608 243.351C386.765 254.435 384.564 265.655 380.678 276.134C378.07 283.163 376.249 290.215 374.445 297.392C373.657 300.526 374.097 302.278 377.134 303.604C402.529 314.693 427.911 325.813 453.251 337.028C469.77 344.339 486.212 351.824 502.688 359.232C505.919 360.685 509.148 362.144 512.689 363.3C513 364.714 513 366.429 512.695 368.273C498.345 375.693 484.299 382.983 470.042 390.383C483.828 396.996 497.139 403.396 510.478 409.737C511.198 410.079 512.154 409.924 513 410C513 410.75 513 411.5 512.62 412.634C498.952 406.709 485.638 400.455 472.392 394.059C468.833 392.34 465.766 392.345 462.152 394.279C438.206 407.095 414.149 419.703 389.542 432.688C415.375 446.246 440.807 459.594 465.999 472.816C469.64 470.743 473.155 468.745 476.667 466.741C488.778 459.829 500.889 452.914 513 446C513 447.067 513 448.133 512.704 449.304C497.936 457.601 483.462 465.793 468.709 474.144C474.084 477.017 478.841 479.647 483.675 482.126C493.428 487.127 503.223 492.047 513 497C513 497.75 513 498.5 512.626 499.627C498.168 492.508 484.056 485.066 470.027 477.468C467.468 476.082 465.487 475.971 462.887 477.522C445.187 488.08 427.365 498.433 409.654 508.974C408.165 509.86 407.205 511.637 406 513C403.958 513 401.917 513 399.523 512.651C420.363 499.658 441.556 487.014 463.047 474.192C450.873 467.694 439.059 461.291 427.153 455.061C414.693 448.541 402.09 442.289 389.688 435.661C387.59 434.539 386.321 434.168 384.115 435.353C362.441 446.995 340.676 458.466 318.96 470.029C314.595 472.353 310.331 474.863 306.06 477.265C320.657 485.196 335.066 492.866 349.309 500.832C356.036 504.595 362.446 508.926 369 513C367.286 513 365.571 513 363.721 512.701C363.396 512.13 363.269 511.741 363.009 511.6C343.63 501.052 324.262 490.483 304.797 480.097C303.624 479.471 301.411 479.844 300.111 480.547C283.334 489.619 266.608 498.787 249.949 508.075C247.738 509.308 245.972 511.339 244 513C241.958 513 239.917 513 237.547 512.66C258.04 500.724 278.861 489.128 299.738 477.5C295.756 475.278 292.054 472.946 288.109 471.149C286.627 470.474 284.249 470.411 282.843 471.147C273.54 476.014 264.159 480.802 255.258 486.345C246.421 491.849 238.167 492.017 229.287 486.681C223.203 483.026 216.717 480.027 210.334 476.89C209.134 476.301 207.504 476.078 206.188 476.318C197.407 477.923 188.98 477.223 180.767 473.477C179.196 472.76 176.695 472.747 175.161 473.501C165.422 478.289 155.812 483.339 146.205 488.391C139.704 491.811 133.278 495.374 126.537 499.025C134.641 503.852 142.32 508.426 150 513C147.958 513 145.917 513 143.723 512.695C137.578 508.671 131.645 504.85 125.532 501.34C124.608 500.81 122.713 501.44 121.505 502.026C115.439 504.965 109.44 508.045 103.467 511.17C103.094 511.365 103.146 512.371 103 513C100.958 513 98.9167 513 96.532 512.654C104.206 507.974 112.222 503.639 121.257 498.755C115.58 495.714 110.877 493.291 106.263 490.709C86.3894 479.588 66.5655 468.377 46.632 457.365C45.2753 456.615 42.8836 456.632 41.4585 457.311C36.2053 459.814 31.2058 462.842 26.0193 465.494C17.718 469.738 9.34354 473.839 1 478C1 477.25 1 476.5 1.37612 475.376C14.7659 468.28 27.7795 461.557 41.2497 454.599C36.3449 451.879 31.9175 449.346 27.4192 446.945C18.6338 442.258 9.80867 437.644 1 433C1 432.25 1 431.5 1.35395 430.451C14.7543 437.224 27.842 444.221 40.8105 451.433C43.2534 452.791 45.0022 452.589 47.3706 451.345C64.4268 442.384 81.5561 433.563 98.6871 424.745C107.137 420.396 115.64 416.149 124.442 411.693C100.89 400.089 77.8989 388.709 54.8211 377.508C53.2798 376.76 50.781 376.725 49.2356 377.446C37.7965 382.787 26.5161 388.466 15.1211 393.903C10.4971 396.11 5.71186 397.978 1 400C1 399.25 1 398.5 1.37193 397.476C17.4822 389.754 33.2205 382.306 49.5568 374.575C34.1599 367.144 19.4794 360.04 4.76944 352.997C3.61789 352.445 2.2613 352.322 1 352C1 350.286 1 348.571 1.37889 346.48C14.2042 340.383 26.6978 334.761 39.0334 328.812C40.4656 328.121 41.9008 325.569 41.8181 323.958C41.5792 319.304 40.5655 314.69 39.8146 309.79C26.5503 315.671 13.7752 321.336 1 327C1 325.933 1 324.867 1.00001 323.4ZM305.806 161.197C306.136 161.33 306.465 161.464 306.794 161.598C306.566 161.03 306.338 160.463 306.015 159.094C306.558 153.593 307.101 148.091 307.6 143.04C302.374 145.01 300.905 153.374 305.806 161.197ZM180.148 442.996C167.747 448.49 155.426 448.414 143.201 442.219C141.983 446.27 144.089 448.531 147.095 449.934C160.134 456.019 172.205 453.743 182.191 443.194C182.33 442.862 182.468 442.531 182.607 442.2C182.042 442.436 181.478 442.672 180.148 442.996ZM439.563 378.982C436.948 377.753 434.343 376.502 431.716 375.298C417.925 368.975 403.956 363.007 390.413 356.19C384.46 353.193 379.642 353.6 374.561 357.184C374.428 357.277 374.337 357.43 374.755 356.957C378.892 374.588 382.981 391.759 386.911 408.966C387.739 412.59 385.408 414.832 381.927 413.541C379.972 412.815 377.708 410.808 377.103 408.897C372.316 393.788 367.895 378.563 363.373 363.414C349.221 369.946 335.008 376.495 320.817 383.093C320.148 383.404 319.219 384.127 319.193 384.693C319.006 388.832 318.472 393.087 319.252 397.069C319.543 398.553 323.015 399.486 325.105 400.532C344.752 410.368 364.399 420.204 384.107 429.917C385.298 430.504 387.263 430.566 388.431 429.988C397.401 425.553 406.289 420.95 415.152 416.303C431.603 407.678 448.02 398.988 464.211 390.453C456.349 386.699 448.343 382.877 439.563 378.982ZM108.615 488.946C112.859 491.311 117.044 493.795 121.383 495.969C122.672 496.615 124.734 497.049 125.87 496.466C137.388 490.552 148.779 484.392 160.224 478.333C165.473 475.553 170.76 472.845 175.1 470.587C174.459 467.211 173.611 464.675 173.597 462.135C173.582 459.501 174.375 456.863 174.841 454.067C164.934 456.98 156.064 456.595 147.077 453C140.482 450.362 138.122 446.452 139.949 439.543C141.442 433.893 143.785 428.468 145.916 422.481C140.729 419.912 134.548 416.772 128.273 413.832C127.366 413.407 125.837 413.607 124.885 414.089C114.216 419.498 103.602 425.017 92.9752 430.51C77.4747 438.522 61.9755 446.537 46.6893 454.44C67.1176 465.791 87.5613 477.15 108.615 488.946ZM59.6524 376.944C80.7486 387.445 101.868 397.901 122.911 408.507C125.483 409.803 127.456 409.86 130.048 408.531C143.627 401.569 157.26 394.706 170.998 388.066C174.713 386.272 177.198 384.356 177.714 379.843C178.577 372.289 180.117 364.812 181.334 357.534C167.455 351.165 154.267 345.001 140.957 339.115C138.698 338.116 135.431 337.236 133.443 338.124C116.944 345.49 100.633 353.279 84.2715 360.952C74.6371 365.47 65.0134 370.011 55.368 374.55C56.5099 375.17 57.7628 375.849 59.6524 376.944ZM380.558 434.016C381.594 433.539 382.63 433.062 383.955 432.452C361.794 421.57 340.051 410.893 318.234 400.179C317.406 414.418 316.599 428.301 315.794 442.183C315.602 445.492 314.906 448.991 310.882 448.77C307.343 448.574 305.883 445.819 305.924 442.036C306.078 427.543 306.005 413.046 305.969 398.551C305.956 393.686 303.577 392.146 299.215 394.241C288.28 399.494 277.37 404.801 266.502 410.192C265.311 410.782 264.467 412.068 263.454 413.022C261.63 414.739 259.8 416.45 257.973 418.163C256.82 419.753 257.77 422.804 256.652 424.218C252.378 429.621 256.421 431.165 260.106 432.966C270.575 438.083 281.112 443.059 291.551 448.234C293.209 449.057 295.219 450.345 295.827 451.901C298.145 457.844 295.473 464.043 289.841 467.059C289.211 467.397 288.723 467.999 288.131 468.512C292.536 470.748 296.651 473.001 300.923 474.901C302.141 475.443 304.096 475.484 305.239 474.871C330.192 461.487 355.078 447.978 380.558 434.016ZM443.448 336.063C441.557 335.161 439.748 333.938 437.756 333.433C434.811 332.686 431.194 331.18 428.808 332.203C414.768 338.22 401.002 344.877 386.177 351.768C390.546 353.704 393.929 355.147 397.264 356.691C419.669 367.061 442.046 377.493 464.504 387.744C465.944 388.402 468.273 388.286 469.715 387.574C479.432 382.772 489.051 377.768 498.638 372.708C502.651 370.591 506.509 368.179 510.822 365.677C497.589 359.89 485.034 354.385 472.468 348.908C462.999 344.782 453.514 340.691 443.448 336.063ZM21.9873 358.531C30.775 362.925 39.4845 367.49 48.4106 371.583C50.4101 372.5 53.4559 372.479 55.5228 371.651C61.4982 369.254 67.2149 366.215 73.0424 363.448C92.8402 354.048 112.642 344.655 132.323 335.316C120.808 330.2 109.193 325.041 97.2158 319.72C97.1138 321.82 97.0793 323.441 96.9492 325.054C96.3147 332.921 93.943 339.79 85.8604 342.986C82.299 344.394 78.6534 345.73 74.9255 346.553C60.1593 349.811 47.1485 343.145 42.5947 330.18C29.4344 336.33 16.2776 342.478 2.59602 348.871C9.20307 352.106 15.2884 355.086 21.9873 358.531ZM108.74 170.172C109.232 170.098 109.768 170.124 110.211 169.935C123.879 164.099 137.532 158.228 151.202 152.395C160.455 148.446 169.729 144.544 178.993 140.622C173.299 137.662 167.314 136.51 162.145 133.8C157.345 131.285 153.576 132.448 149.284 134.202C130.809 141.75 112.313 149.247 93.7838 156.661C80.9402 161.8 68.0297 166.771 55.3092 171.754C59.1991 177.298 62.9008 182.573 66.6123 187.862C80.4017 182.13 94.2453 176.374 108.74 170.172ZM43.0272 313.165C43.6892 317.378 44.4428 321.579 44.9913 325.807C45.7725 331.828 46.4471 338.165 52.854 340.864C63.3245 345.276 74.0005 345.347 84.5943 340.789C88.6615 339.039 92.1233 336.675 92.8976 332.079C94.1195 324.825 95.0634 317.521 95.9539 310.217C96.5534 305.3 96.8581 300.348 97.2774 295.606C78.1645 305.528 59.6674 305.093 41.2261 295.447C41.8397 301.226 42.4257 306.745 43.0272 313.165ZM180.015 383.525C179.656 386.354 180.292 388.305 183.217 389.843C190.396 393.619 198.04 394.115 205.873 394.318C210.213 394.431 211.362 392.03 212.014 388.439C214.034 377.314 216.217 366.218 218.354 355.02C208 350.47 197.624 345.911 187.519 341.47C184.985 355.366 182.496 369.01 180.015 383.525ZM226.408 465.971C223.35 467.771 220.292 469.572 217.022 471.497C223.144 474.559 228.848 478.066 235.021 480.256C238.725 481.569 243.557 481.988 247.178 480.751C253.667 478.534 259.67 474.849 265.794 471.621C273.782 467.41 281.742 463.137 289.589 458.67C291.084 457.819 293.059 455.815 292.911 454.57C292.717 452.945 290.917 451.004 289.304 450.143C282.602 446.566 275.711 443.341 268.887 439.991C265.385 438.272 261.878 436.562 257.519 434.431C258.001 437.755 258.491 439.985 258.615 442.235C258.852 446.531 260.017 451.221 258.727 455.05C256.828 460.684 246.301 465.09 240.492 462.863C235.006 460.76 231.051 462.396 226.408 465.971ZM371.02 342.43C373.147 347.49 381.739 351.045 386.499 348.827C395.692 344.544 404.903 340.298 414.064 335.949C418.5 333.843 422.842 331.539 428.104 328.881C409.265 320.507 391.434 312.582 373.191 304.473C372.674 307.304 372.287 309.556 371.848 311.798C371.388 314.143 370.877 316.478 370.399 318.767C375.964 322.584 376.978 330.427 372.214 335.169C370.049 337.324 369.608 339.132 371.02 342.43ZM35.9459 174.46C33.8224 172.69 31.699 170.919 29.5755 169.149C29.8982 168.836 30.2209 168.522 30.5436 168.208C48.9442 178.78 56.4865 197.025 64.1399 215.705C65.0558 209.465 66.0051 203.171 65.0944 197.158C62.8523 182.354 54.6231 171.292 40.746 165.621C35.8924 163.637 29.806 164.67 24.2825 164.326C23.8621 168.31 23.41 172.291 23.0557 176.281C23.003 176.874 23.4956 177.494 23.5937 178.124C25.6645 191.421 33.9966 200.841 43.7604 208.889C48.4908 212.788 54.708 214.883 60.2521 217.794C55.1616 201.261 49.0988 186.188 35.9459 174.46ZM235.709 385.5C235.759 408.76 235.901 432.02 235.789 455.279C235.764 460.406 239.078 460.986 242.558 460.873C246.155 460.757 250.556 460.146 250.569 455.318C250.61 440.1 250.125 424.882 250.009 409.662C249.895 394.871 249.984 380.078 249.984 366.46C245.005 365.55 240.5 364.726 235.709 363.85C235.709 370.572 235.709 377.536 235.709 385.5ZM150.499 313.022C138.137 307.652 125.775 302.283 113.308 296.868C112.674 301.618 112.266 305.376 117.796 307.501C126.04 310.67 133.891 314.849 141.976 318.448C172.436 332.007 202.918 345.518 233.41 359.007C237.05 360.618 240.797 361.987 244.785 363.584C244.785 359.232 244.785 355.663 244.785 353.103C240.114 351.424 235.97 350.163 232.011 348.47C219.385 343.07 206.82 337.529 194.248 332.005C179.918 325.71 165.605 319.375 150.499 313.022ZM119.15 179.698C137.722 171.803 156.122 163.455 174.958 156.251C181.79 153.639 184.32 150.287 182.991 143.496C182.911 143.084 182.796 142.68 182.651 142.083C143.957 158.343 105.469 174.516 67.0129 190.676C67.6173 194.231 68.1892 197.594 68.7506 200.897C85.3545 193.901 101.886 186.935 119.15 179.698ZM301.04 356.591C307.931 359.242 315.004 360.731 322 357.477C336.262 350.844 350.406 343.957 364.548 337.071C372.366 333.264 372.32 333.169 371.775 324.822C355.126 332.776 338.482 341.037 321.524 348.594C317.664 350.314 312.722 349.765 308.268 349.88C307.197 349.908 306.086 348.422 304.994 347.632C305.996 346.757 306.859 345.57 308.021 345.056C317.662 340.793 327.45 336.852 337.017 332.433C354.503 324.357 360.217 307.227 357.574 289.523C353.847 290.822 350.12 292.121 346.392 293.417C352.826 297.162 352.993 297.493 352.633 305.028C352.594 305.845 352.776 306.672 352.852 307.495C353.616 315.734 352.488 317.72 344.934 321.268C330.904 327.86 316.864 334.428 302.834 341.017C296.69 343.902 290.558 346.813 284.46 349.694C289.646 351.77 295.029 353.925 301.04 356.591ZM108.595 199.007C104.968 199.668 101.306 200.175 97.7213 201.015C79.2074 205.352 67.5304 223.121 73.9073 239.985C80.2301 223.176 89.9845 209.911 107.667 204.4C100.384 209.553 92.4055 213.815 86.89 221.446C81.4963 228.91 76.8173 236.518 75.2305 247.746C82.3486 244.193 89.7073 242.557 93.9326 238.009C104.359 226.787 113.347 214.229 123.671 201.257C117.79 200.323 113.639 199.664 108.595 199.007ZM60.609 256.117C52.5134 244.729 42.79 235.756 27.9192 233.774C32.5485 231.595 37.0151 233.173 40.8855 235.145C45.2953 237.392 49.4009 240.466 53.1263 243.76C56.723 246.94 59.6671 250.858 62.8979 254.452C62.4559 249.641 62.0895 244.415 59.6195 240.525C49.2773 224.236 34.0446 221.605 17.243 229.297C14.5835 230.515 14.2638 231.779 16.4007 233.969C22.3076 240.022 27.7204 246.603 33.9778 252.257C40.7847 258.408 49.3074 260.914 58.504 260.999C61.8808 261.029 62.5889 259.63 60.609 256.117ZM174.074 429.616C174.915 433.369 175.757 437.122 176.691 441.293C183.274 438.268 189.73 435.324 196.164 432.331C198.196 431.386 200.815 430.796 202.026 429.186C204.151 426.361 205.177 422.736 207.084 419.711C208.458 417.53 210.513 415.778 212.277 413.821C212.133 411.669 211.958 409.039 211.769 406.212C204.864 411.855 197.197 412.036 189.408 411.03C187.817 418.651 182.677 424.647 177.331 424.504C178.606 423.135 179.467 421.971 180.555 421.086C184.966 417.497 187.157 412.862 187.236 407.23C187.297 402.837 183.983 399.08 178.92 398.605C175.284 398.263 174.543 401.544 173.737 404.314C173.469 405.238 173.148 406.148 172.895 406.93C175.601 410.13 181.583 410.595 180.651 417.241C177.386 414.298 174.743 411.917 171.985 409.43C170.336 411.176 169.222 412.354 168.118 413.523C170.945 416.711 176.696 417.133 176.949 423.335C171.945 421.522 169.715 413.397 163.644 417.719C167.232 421.587 170.596 425.213 174.074 429.616ZM342.483 310.023C332.796 315.308 321.59 317.922 313.793 326.582C312.622 327.882 310.434 328.282 308.698 329.055C300.182 332.849 290.711 333.358 282.25 337.985C271.177 344.041 259.184 348.413 247.496 353.549C247.496 356.053 247.496 359.406 247.496 363.001C248.174 362.928 249.034 363.037 249.707 362.732C259.708 358.215 269.727 353.737 279.656 349.066C300.743 339.147 321.801 329.166 342.826 319.117C350.581 315.41 350.524 315.289 349.607 306.423C347.477 307.62 345.368 308.806 342.483 310.023ZM220.928 359.286C220.674 359.715 220.279 360.117 220.189 360.578C217.783 372.875 215.353 385.167 213.052 397.484C211.969 403.286 213.009 405.171 218.709 407.014C223.24 408.479 227.948 409.397 232.58 410.558C232.58 393.575 232.58 377.384 232.58 361.496C229.612 360.121 226.877 358.676 223.997 357.63C223.148 357.322 221.891 358.139 220.928 359.286ZM210.472 426.918C217.91 431.281 218.561 432.236 217.005 435.126C213.665 432.661 210.221 430.12 206.702 427.522C204.964 430.063 203.888 431.635 202.823 433.193C206.15 435.837 211.657 436.052 212.047 442.355C207.841 439.583 204.259 437.223 200.597 434.809C199.202 436.357 198.165 437.507 196.78 439.045C209.134 442.133 210.457 452.377 212.399 462.345C219.635 458.754 226.324 455.434 232.474 452.382C232.474 444.744 232.474 437.501 232.474 430.298C227.975 429.195 225.45 430.237 223.739 435.084C222.404 438.866 218.905 441.917 216.184 445.138C215.791 445.603 214.373 445.202 214.022 445.202C217.005 440.225 220.396 435.805 222.452 430.833C225.185 424.224 222.594 419.29 215.793 417.63C214.119 417.221 211.254 419.158 209.908 420.809C208.963 421.97 205.353 424.617 210.472 426.918ZM346.708 368.207C352.097 365.695 357.485 363.182 362.835 360.687C361.104 354.864 359.475 349.38 357.763 343.62C344.812 349.715 332.456 355.529 319.965 361.407C319.965 367.895 319.965 374.274 319.965 380.834C328.843 376.694 337.462 372.674 346.708 368.207ZM305.976 384.101C305.936 383.939 305.921 383.765 305.848 383.621C305.8 383.527 305.635 383.395 305.578 383.418C300.931 385.296 297.599 384.406 297.268 380.69C296.604 373.221 296.478 365.703 296.106 357.693C292.442 355.973 288.234 353.981 284.012 352.019C280.742 350.501 275.667 353.156 274.943 356.772C273.637 363.288 272.361 369.81 271.067 376.355C280.43 380.77 289.713 385.236 299.078 389.52C302.725 391.187 305.42 389.241 305.976 384.101ZM253.004 412.181C253.885 413.115 254.796 414.872 255.641 414.841C259.628 414.694 261.352 412.258 262.07 408.311C264.168 396.779 266.69 385.325 268.95 373.822C270.102 367.961 271.047 362.06 272.195 355.555C266.496 358.184 261.682 360.91 256.529 362.596C253.401 363.62 252.954 365.095 252.971 367.856C253.061 382.316 253.006 396.778 253.004 412.181ZM143.709 62.4999C143.709 82.4222 143.709 102.345 143.709 122.375C145.853 123.15 147.826 123.864 149.778 124.57C149.778 84.5287 149.778 44.8375 149.778 4.4876C147.339 5.52814 145.33 6.38514 143.709 7.07622C143.709 25.4878 143.709 43.4938 143.709 62.4999ZM157.392 397.989C148.317 402.441 139.242 406.893 129.836 411.508C136.754 414.932 143.268 418.157 150.168 421.572C152.803 416.634 162.143 421.056 162.096 413.741C164.724 412.143 167.229 411.399 168.4 409.724C170.087 407.309 170.474 404.013 172.039 401.478C173.341 399.367 175.47 397.732 177.366 396.034C178.681 394.855 180.222 393.928 180.904 393.436C178.737 391.683 177.307 390.528 175.23 388.849C170.741 391.112 164.375 394.321 157.392 397.989ZM339.96 274.48C332.017 276.406 324.074 278.332 315.602 280.386C319.164 281.977 322.14 283.658 325.329 284.66C332.528 286.921 339.167 292.162 347.297 289.924C358.265 286.906 364.164 284.621 362.998 271.825C362.65 268.006 362.333 264.185 361.968 259.969C356.289 267.404 349.367 272.105 339.96 274.48ZM192.518 441.009C186.661 441.927 182.856 445.248 179.799 450.347C175.871 456.902 178.482 461.196 184.65 463.003C192.946 465.432 201.284 465.754 209.69 463.592C209.471 462.747 209.081 461.835 209.018 460.901C208.322 450.686 204.561 442.926 192.518 441.009ZM182.082 354.18C182.979 349.603 183.875 345.026 184.781 340.399C177.035 336.903 169.295 333.704 161.843 329.935C157.382 327.679 153.717 328.186 149.58 330.585C146.095 332.605 142.163 333.854 138.491 335.417C143.738 337.803 148.846 340.144 153.97 342.45C163.185 346.598 172.409 350.723 182.082 354.18ZM365.555 260.021C365.561 264.469 365.642 268.918 365.556 273.364C365.449 278.861 365.962 279.337 372.083 278.488C374.568 266.014 377.023 253.431 379.593 240.872C381.652 230.81 377.941 224.075 368.512 220.634C368.512 225.364 368.912 230.251 368.423 235.047C367.597 243.139 366.209 251.174 365.555 260.021ZM59.3056 162.948C81.6768 153.964 104.048 144.981 126.419 135.995C133.368 133.204 140.315 130.405 147.263 127.61C147.193 127.076 147.123 126.542 147.053 126.008C144.799 125.759 142.241 124.687 140.341 125.392C127.035 130.323 113.87 135.635 100.65 140.799C81.2232 148.387 61.7881 155.952 42.8103 163.351C47.445 168.569 52.5094 165.942 57.5797 163.294C57.8672 163.144 58.2049 163.09 59.3056 162.948ZM153.84 442.981C155.417 443.257 157.004 443.489 158.57 443.817C170.031 446.215 174.583 442.008 171.848 431.507C171.604 430.569 171.286 429.639 170.894 428.753C167.934 422.069 157.994 418.95 151.901 423.026C147.057 426.266 143.524 430.787 143.943 436.861C144.302 442.055 149.704 441.269 153.84 442.981ZM308.709 413.499C308.772 420.322 308.846 427.145 308.892 433.969C308.914 437.291 308.796 440.618 308.947 443.934C308.978 444.635 309.906 445.296 310.42 445.976C310.99 445.293 311.729 444.688 312.086 443.907C312.547 442.899 312.892 441.762 312.963 440.66C314.074 423.405 315.176 406.148 316.186 388.887C316.703 380.04 317.034 371.183 317.455 362.226C314.181 362.226 311.764 362.226 308.709 362.226C308.709 379.122 308.709 395.81 308.709 413.499ZM277.624 402.055C284.424 398.705 291.224 395.356 298.573 391.736C288.708 387.266 279.566 383.124 270.578 379.051C268.674 388.699 266.825 398.069 264.815 408.255C269.29 406.149 273.151 404.333 277.624 402.055ZM372.143 360.323C370.546 353.253 368.949 346.184 367.299 338.879C364.833 340.126 362.484 341.314 360.452 342.342C367.13 365.459 373.712 388.245 380.243 410.851C381.994 410.851 383.308 410.851 384.538 410.851C380.46 394.21 376.407 377.669 372.143 360.323ZM317.066 171.504C316.581 169.798 316.097 168.093 315.188 164.894C313.195 166.45 310.765 167.367 310.174 168.965C306.017 180.198 299.742 189.2 287.773 192.286C291.829 197.495 296.987 197.362 302.325 194.837C304.656 193.734 307.229 192.445 308.769 190.507C313.068 185.098 320.111 180.842 317.066 171.504ZM280.02 308.401C280.34 309.978 280.706 311.547 280.974 313.132C281.986 319.126 285.876 322.508 293.054 322.922C298.784 323.253 304.285 320.474 305.386 315.435C306.107 312.139 306.642 308.803 307.336 305.08C298.725 310.141 290.431 309.439 281.996 306.533C281.512 306.366 280.686 307.187 280.02 308.401ZM50.6594 296.993C65.024 301.59 79.09 301.193 92.8081 294.98C92.913 294.442 93.0178 293.905 93.1227 293.367C86.9098 291.484 80.6968 289.601 74.3565 287.679C73.4655 297.912 72.7764 298.471 65.3096 295.62C65.1964 293.381 65.0833 291.142 64.9718 288.936C56.8061 288.928 50.4105 291.236 46.9743 295.365C47.947 295.902 48.8978 296.427 50.6594 296.993ZM223.006 460.53C208.014 469.186 192.733 471.58 176.442 462.802C177.424 465.475 178.425 468.52 180.444 469.53C184.571 471.593 189.154 473.08 193.711 473.888C209.187 476.633 219.708 465.68 231.914 459.445C232.44 459.177 232.408 457.815 232.636 456.963C231.808 456.918 230.861 456.591 230.173 456.88C227.936 457.819 225.794 458.984 223.006 460.53ZM367.96 323.592C368.573 323.206 369.186 322.82 370.646 321.9C365.834 320.094 361.752 317.917 357.457 317.347C356.185 317.178 354.322 321.544 352.704 323.814C352.419 324.214 351.989 324.507 351.655 324.876C344.464 332.828 334.983 337.04 325.355 341.026C320.577 343.003 315.827 345.048 311.064 347.063C311.215 347.477 311.366 347.892 311.516 348.306C313.874 347.8 316.421 347.707 318.56 346.724C334.852 339.234 351.065 331.57 367.96 323.592ZM278.047 315.298C276.304 316.549 273.127 317.807 273.133 319.049C273.143 321.252 274.523 324.513 276.318 325.461C285.176 330.14 300.422 332.093 310.074 325.305C312.039 323.923 314.776 321.412 314.568 319.743C314.32 317.747 311.292 316.098 308.914 313.752C306.346 322.725 300.684 325.644 293.201 325.636C286.236 325.629 281.329 322.287 278.047 315.298ZM189.689 403.22C189.867 405.018 190.046 406.815 190.175 408.119C193.838 408.119 197.435 408.374 200.982 408.066C208.894 407.38 210.694 404.94 209.604 398.125C201.762 396.79 194.235 395.378 186.657 394.348C185.408 394.178 183.931 395.682 182.559 396.412C183.304 396.186 184.049 395.96 184.793 395.734C186.242 398.035 187.691 400.336 189.689 403.22ZM261.424 479.948C270.654 474.953 279.913 470.012 289.085 464.913C290.753 463.986 292.063 462.415 293.538 461.142C293.22 460.747 292.902 460.351 292.584 459.956C291.447 460.431 290.254 460.804 289.181 461.396C276.328 468.479 263.5 475.605 250.652 482.696C244.863 485.892 238.991 485.324 233.273 482.64C227.709 480.029 222.326 477.037 216.777 474.393C215.492 473.781 213.856 473.906 212.382 473.692C216.145 476.588 219.783 479.085 223.741 480.872C229.583 483.508 235.486 486.775 241.671 487.69C248.837 488.749 254.702 483.61 261.424 479.948ZM377.039 266.786C376.348 270.781 375.657 274.775 374.966 278.77C375.483 278.934 376.001 279.098 376.518 279.262C377.336 277.486 378.41 275.781 378.921 273.921C380.078 269.711 381.16 265.461 381.909 261.164C383.449 252.318 385.428 243.474 385.991 234.552C386.8 221.711 379.203 218.259 366.878 214.904C368.043 216.109 369.327 217.174 370.772 217.933C382.265 223.979 383.954 230.293 382.71 240.369C381.644 248.992 379.144 257.438 377.039 266.786ZM321.009 144.28C320.617 143.858 320.276 143.138 319.824 143.059C315.579 142.321 311.654 143.952 310.393 147.667C309.108 151.451 309.103 156.018 309.838 160.002C310.239 162.177 313.097 163.586 316.352 162.124C322.358 159.426 324.834 151.804 321.009 144.28ZM41.2014 290.704C42.2164 291.788 43.2313 292.873 44.2966 294.011C50.2671 287.961 57.6152 285.904 65.5021 285.838C65.2795 282.804 65.0689 279.933 64.7827 276.03C57.9122 278.226 51.5992 280.084 45.4082 282.284C41.9945 283.498 40.3809 286.189 41.2014 290.704ZM306.96 199.562C308.561 201.511 310.161 203.46 312.164 205.901C318.069 196.286 326.673 188.648 322.484 175.132C318.183 184.29 313.591 191.789 305.48 196.338C305.358 196.407 306.132 198.074 306.96 199.562ZM75.0141 278.781C74.8958 281.121 74.7775 283.462 74.664 285.707C82.1136 286.567 89.5293 287.21 94.7581 293.555C98.9653 289.153 99.1568 286.708 94.6122 283.232C88.9032 278.866 82.2044 277.35 75.0141 278.781ZM309.561 107.027C311.264 109.571 312.966 112.114 314.737 114.761C317.144 108.582 310.5 97.4914 305.461 94.1994C300.291 90.8214 292.582 91.0741 289.419 93.6255C295.704 97.7606 302.366 102.143 309.561 107.027ZM368.427 284.211C367.837 282.969 367.246 281.727 366.619 280.408C362.364 284.352 360.707 288.057 360.821 293.11C360.952 298.899 359.59 304.714 359.059 310.534C358.929 311.964 359.505 313.459 359.756 314.924C360.83 313.868 362.601 312.961 362.866 311.731C364.777 302.84 366.383 293.883 368.427 284.211ZM230.828 427.211C231.288 426.73 232.134 426.258 232.146 425.766C232.252 421.58 232.207 417.39 232.207 413.369C227.73 412.359 223.074 411.309 218.263 410.224C217.857 411.695 217.451 413.168 217.012 414.757C221.739 417.555 227.393 419.489 225.932 426.855C227.484 426.987 228.748 427.094 230.828 427.211ZM304.968 372.136C305.025 370.319 304.661 368.361 305.214 366.71C307.163 360.882 303.785 359.743 298.722 359.08C299.201 366.925 299.658 374.401 300.114 381.878C300.619 382.082 301.123 382.287 301.628 382.492C302.413 381.103 303.456 379.794 303.916 378.304C304.437 376.615 304.435 374.764 304.968 372.136ZM293.562 298.986C297.924 299.713 302.286 300.44 306.554 301.151C306.511 296.66 302.386 295.712 298.8 295.143C292.592 294.157 286.341 294.572 281.132 298.727C280.366 299.339 280.677 301.299 280.587 301.935C284.988 300.86 288.822 299.924 293.562 298.986ZM374.188 282.058C373.118 283.32 371.418 284.433 371.08 285.868C368.927 295.005 366.978 304.195 365.227 313.418C364.963 314.807 366.09 316.46 366.573 317.991C366.889 317.879 367.205 317.766 367.521 317.654C369.973 305.941 372.425 294.228 374.188 282.058ZM300.969 304.977C301.842 304.551 302.715 304.125 303.624 303.681C297.299 299.948 290.034 300.135 282.837 305.042C289.415 305.042 294.778 305.042 300.969 304.977ZM310.285 302.214C309.983 305.7 309.681 309.187 309.275 313.866C311.3 311.809 313.229 310.642 313.925 308.964C315.108 306.109 314.064 303.542 310.285 302.214ZM254.999 440.341C254.572 437.358 254.146 434.375 253.72 431.392C253.538 431.415 253.357 431.438 253.175 431.461C253.175 437.131 253.175 442.801 253.175 448.584C257.754 447.016 255.008 443.738 254.999 440.341ZM253.362 418.583C252.906 419.767 252.45 420.951 251.994 422.135C252.528 422.254 253.062 422.373 253.596 422.491C253.666 421.367 253.737 420.244 253.362 418.583Z" fill="#F2F2F2" style="fill:#F2F2F2;fill:color(display-p3 0.9490 0.9490 0.9490);fill-opacity:1;"/>
<path d="M334.625 1C335.009 10.8148 335.02 20.6295 335.027 30.4443C335.032 36.6685 335.03 36.6685 340.953 37.4747C340.953 40.4091 340.953 43.3759 340.953 46.3062C350.249 50.9355 356.685 57.6889 359.463 67.7812C360.658 72.1221 359.972 75.289 355.711 76.9922C352.299 78.3562 348.777 79.9065 345.189 80.2849C334.248 81.4386 323.329 82.0693 312.564 78.2596C307.335 76.4091 305.822 72.9553 307.123 68.45C310.006 58.4604 315.343 50.2352 325.982 46.4235C325.982 44.6835 325.773 42.8324 326.049 41.0564C326.264 39.6697 327.044 37.2354 327.636 37.2165C334.183 37.0068 332.067 32.1901 332.124 28.8458C332.276 19.8772 332.136 10.9037 332.056 1.4661C332.75 1 333.5 1 334.625 1ZM354.212 74.9623C355.13 73.7004 357.014 72.2502 356.811 71.207C355.405 63.9929 352.74 57.4329 346.476 52.7625C343.054 50.2108 340.006 48.9972 335.546 50.2768C332.769 51.0733 329.241 48.9642 326.292 49.4988C319.022 50.8172 310.789 61.4332 309.959 69.2013C309.561 72.9264 310.645 75.089 314.422 76.0025C327.513 79.1686 340.513 79.6606 354.212 74.9623ZM329.422 46.9518C335.853 49.4404 338.231 47.8387 337.705 41.6278C334.904 41.6278 332.124 41.6278 328.984 41.6278C328.984 43.0009 328.984 44.6055 329.422 46.9518Z" fill="#EFEFEF" style="fill:#EFEFEF;fill:color(display-p3 0.9373 0.9373 0.9373);fill-opacity:1;"/>
<path d="M156.625 1C156.998 43.023 156.995 85.046 156.921 127.532C156.175 127.998 155.5 128 154.417 127.535C154.005 85.0459 154.003 43.0229 154 1C154.75 1 155.5 1 156.625 1Z" fill="#F8F8F8" style="fill:#F8F8F8;fill:color(display-p3 0.9725 0.9725 0.9725);fill-opacity:1;"/>
<path d="M94.0105 254.755C94.0073 254.106 94.0042 253.458 94.0048 252.485C104.712 250.428 111.886 256.149 117.991 263.755C135.041 256.402 151.845 249.156 168.535 241.959C166.043 233.04 163.607 224.321 160.813 214.319C181.661 222.108 200.644 229.289 219.725 236.197C221.688 236.908 224.477 236.543 226.465 235.697C229.537 234.39 232.125 231.989 235.136 230.488C242.968 226.585 247.003 219.534 251.01 212.315C255.396 204.413 261.542 194.832 265.5 188C263.079 181.875 260 181.5 255.5 161.5C255.259 160.846 256.042 163.038 257.095 162.001C259.33 171.774 264.233 187.727 275.726 189.768C275.986 190.694 275.981 191.356 275.609 192.361C272.679 191.837 270.116 190.969 267.025 189.923C262.772 197.032 257.976 203.982 254.288 211.477C249.376 221.464 243.431 230.189 233.161 235.293C231.224 236.255 229.45 237.545 227.84 238.537C234.226 244.64 233.347 252.981 236.634 259.793C251.341 253.215 267.941 248.872 274.03 230.229C274.531 230.603 275.032 230.977 275.534 231.351C275.534 234.225 275.534 237.099 275.105 240.042C274.176 240.39 273.675 240.669 273.112 240.658C273.103 240.177 273.157 239.986 273.403 239.488C273.464 238.657 273.333 238.135 273.203 237.612C272.819 238.117 272.435 238.622 272.025 239.485C268.231 247.983 260.386 251.264 253.288 256.187C257.053 256.96 260.859 257.132 264.659 257.387C265.49 257.443 266.301 257.797 267.12 258.014C266.924 258.567 266.885 259.441 266.509 259.625C262.032 261.819 257.506 263.911 252.591 265.769C253.57 263.736 254.95 261.963 256.221 260.33C251.512 257.297 246.305 258.17 241.148 261.662C245.112 263.109 249.068 264.553 253.305 266.305C251.714 268.557 249.842 270.501 247.97 272.445C248.47 267.031 244.884 264.262 237.693 264.513C239.331 269.54 239.958 275.368 247.935 272.438C248.147 273.641 248.351 274.802 248.482 275.549C253.209 271.736 257.899 267.953 262.862 264.516C263.353 265.063 263.571 265.261 263.581 265.75C259.012 270.262 254.651 274.484 250.29 278.706C250.833 279.389 251.376 280.073 251.919 280.757C257.565 277.16 260.243 269.057 268.087 268.72C265.386 271.416 261.848 273.314 259.58 276.208C257.443 278.934 256.643 282.708 255.217 286.112C251.263 282.726 246.598 278.731 241.933 274.736C241.659 275.059 241.384 275.382 241.109 275.705C242.619 281.068 244.13 286.431 245.638 291.787C249.198 290.567 252.993 289.281 256.77 287.945C257.096 287.829 257.367 287.413 257.556 287.077C259.203 284.131 260.825 281.171 263.02 278.584C264.011 279.102 264.435 279.251 264.603 279.736C263.38 281.79 262.414 283.508 261.257 285.566C264.015 285.257 265.934 285.043 267.853 284.828C267.935 285.427 268.017 286.025 268.099 286.624C261.074 289.198 254.048 291.773 246.628 294.493C247.166 296.345 247.674 298.091 248.195 299.886C262.817 293.058 278.088 288.552 292.177 281.435C291.985 281.062 291.794 280.689 291.603 280.317C290.369 280.005 289.135 279.693 287.509 279.283C290.019 277.049 291.912 275.364 293.486 273.963C295.691 275.448 297.572 276.715 300.138 278.444C300.533 274.443 300.852 271.22 301.459 267.841C302.342 267.409 302.935 267.133 303.696 267.239C303.578 271.406 303.293 275.191 303.009 278.976C303.061 279.348 303.113 279.72 302.882 280.774C300.174 280.829 297.75 280.202 295.326 279.574C295.657 279.832 295.987 280.09 296.318 280.347C293.169 282.902 290.385 286.295 286.803 287.857C275.169 292.932 263.295 297.479 251.379 301.865C249.273 302.64 246.298 302.248 244.105 301.405C226.416 294.606 208.843 287.505 191.179 280.638C183.685 277.725 176.128 275.101 175.656 265.184C175.635 264.738 174.765 264.333 174.488 264.085C161.897 269.462 149.528 274.652 137.238 280.025C129.142 283.564 121.161 287.366 113.128 291.05C112.396 291.29 111.665 291.531 110.549 291.394C111.322 289.934 112.298 288.455 113.664 287.828C124.661 282.791 135.717 277.881 146.783 272.998C155.867 268.989 164.99 265.071 174.218 261.059C172.568 255.28 171.091 250.107 169.58 244.815C152.47 252.039 135.791 259.081 119.104 266.127C119.804 267.675 120.327 268.834 120.851 269.993C120.134 269.998 119.417 270.003 118.044 269.805C114.227 259.549 104.692 253.435 94.0105 254.755ZM199.584 263.047C202.297 264.177 205.011 265.307 208.443 266.736C207.843 262.582 207.258 258.519 206.567 253.726C204.296 252.771 200.904 251.345 197.492 249.91C195.798 255.625 195.798 255.625 199.584 263.047Z" fill="#FDFDFD" style="fill:#FDFDFD;fill:color(display-p3 0.9922 0.9922 0.9922);fill-opacity:1;"/>
<path d="M454.031 159.98C437.089 153.947 420.599 147.824 403.96 142.139C400.136 140.833 398.909 139.157 398.925 135.191C399.066 98.8959 399.001 62.6001 399.001 26.3045C399.001 21.367 404.302 17.5522 409.109 19.0791C425.875 24.4047 442.641 29.7335 459.389 35.1169C469.504 38.368 479.581 41.7332 489.684 45.0214C491.833 45.7209 493.099 46.5999 493.09 49.3801C492.969 88.1726 493.006 126.966 492.995 165.759C492.995 166.247 492.871 166.735 492.882 166.652C486.268 173.357 479.885 169.155 473.537 166.962C467.135 164.751 460.795 162.36 454.031 159.98ZM446.962 154.533C459.243 158.919 471.524 163.305 483.823 167.697C483.823 129.081 483.823 90.6363 483.823 52.4212C456.484 43.313 429.371 34.2799 402.155 25.2125C402.155 63.1663 402.155 100.953 402.155 138.726C416.961 143.877 431.624 148.98 446.962 154.533ZM487.01 141.5C487.01 149.883 487.01 158.266 487.01 166.649C487.518 166.769 488.025 166.889 488.533 167.01C489.086 165.606 489.975 164.234 490.115 162.79C490.337 160.489 490.003 158.139 490.003 155.809C489.992 121.481 489.96 87.1525 490.057 52.8244C490.066 49.4772 489.709 47.4234 485.707 46.7545C481.936 46.124 478.39 44.2202 474.698 43.0192C456.264 37.0223 437.837 31.0038 419.357 25.1527C414.562 23.6346 409.585 22.692 404.691 21.485C404.577 21.9038 404.464 22.3226 404.35 22.7415C405.667 23.1936 406.979 23.6612 408.301 24.0957C432.587 32.0721 456.871 40.0528 481.163 48.0093C485.068 49.2882 487.201 51.1078 487.149 56.0113C486.846 84.1715 487.007 112.337 487.01 141.5Z" fill="#F6F6F6" style="fill:#F6F6F6;fill:color(display-p3 0.9647 0.9647 0.9647);fill-opacity:1;"/>
<path d="M445.307 262.68C434.036 258.158 423.049 253.946 412.163 249.487C411.117 249.059 410.3 247.161 410.082 245.83C409.737 243.729 409.99 241.53 409.99 239.23C413.673 237.66 417.234 236.136 420.8 234.623C428.995 231.148 428.996 231.151 437.235 233.436C438.007 229.283 437.601 224.188 439.908 221.16C442.095 218.291 447.126 217.59 451.931 215.486C452.078 214.797 452.858 213.211 449.278 212.65C436.676 210.675 430.934 201.456 427.295 190.498C425.856 186.162 427.96 184.085 432.471 185.259C444.136 188.294 454.161 194.795 454.068 209.149C454.056 210.983 454.849 212.822 455.969 214.598C455.969 210.439 455.678 206.256 456.025 202.126C456.955 191.069 464.827 186.572 473.132 184.081C474.221 183.754 475.368 183.616 476.488 183.393C480.102 182.671 482.085 183.64 482.071 187.839C482.034 199.218 474.584 209.356 463.333 213.049C461.383 213.689 459.534 214.638 457.152 215.652C458.274 216.574 458.487 216.881 458.762 216.955C473.767 220.997 471.3 223.253 469.019 236.054C468.602 238.391 467.928 240.682 467.314 243.238C474.875 245.98 482.406 248.711 489.931 251.439C489.931 254.849 489.931 258.001 489.931 261.267C483.5 264.462 477.186 268.089 470.471 270.671C468.125 271.574 464.663 270.271 461.933 269.33C456.414 267.428 451.048 265.084 445.307 262.68ZM480.557 255.059C482.022 254.294 483.486 253.528 485.379 252.54C479.634 250.481 474.648 248.531 469.542 246.973C468.19 246.561 466.009 246.815 464.99 247.682C455.53 255.73 443.803 252.485 439.941 240.591C438.571 236.374 431.496 232.666 427.376 234.292C423.42 235.852 419.626 237.824 415.734 239.628C416.018 240.125 416.112 240.569 416.349 240.665C432.165 247.112 447.968 253.592 463.853 259.866C465.583 260.549 467.953 260.531 469.741 259.954C473.256 258.818 476.571 257.06 480.557 255.059ZM447.559 231.085C445.487 230.435 443.416 229.784 441.265 229.109C441.847 243.912 444.846 248.562 453.221 249.015C462.486 249.516 465.942 244.837 466.855 230.591C460.75 230.922 454.505 231.261 447.559 231.085ZM461.038 208.844C462.227 209.157 463.663 210.065 464.565 209.689C472.542 206.366 480.628 196.985 478.424 186.102C461.167 188.021 457.941 197.959 458.288 208.11C461.17 203.904 464.27 199.381 467.369 194.858C467.92 195.229 468.471 195.6 469.022 195.971C466.464 200.021 463.906 204.07 461.038 208.844ZM437.591 256.961C446.893 260.689 456.196 264.418 466.889 268.703C465.864 265.957 465.704 263.582 464.712 263.16C447.681 255.914 430.547 248.909 413.388 241.831C411.724 245.196 412.946 246.859 415.9 248.028C422.925 250.809 429.888 253.749 437.591 256.961ZM444.844 199.266C446.244 200.991 447.645 202.715 449.046 204.44C448.719 195.261 440.884 189.166 431.131 189.028C430.609 197.763 439.91 209.548 449.367 208.699C447.463 206.136 445.656 203.882 444.093 201.469C443.71 200.877 444.126 199.767 444.844 199.266ZM467.031 222.768C465.159 221.904 463.354 220.813 461.398 220.229C458.318 219.308 455.803 219.509 455.927 223.876C455.959 225.008 454.9 226.172 454.342 227.321C453.875 227.242 453.407 227.162 452.939 227.082C452.478 224.464 452.017 221.845 451.531 219.084C449.129 219.732 446.618 220.074 444.443 221.117C443.051 221.784 442.155 223.486 441.036 224.724C442.184 225.744 443.234 227.484 444.497 227.656C449.479 228.334 454.572 229.074 459.536 228.682C462.525 228.447 466.779 228.254 467.031 222.768ZM484.728 256.054C480.518 258.049 476.387 260.24 472.071 261.972C469.128 263.154 467.97 264.727 469.294 268.232C474.289 265.806 479.006 262.977 484.095 261.234C487.474 260.077 488.689 258.718 487.735 255.411C486.994 255.615 486.253 255.819 484.728 256.054Z" fill="#F2F2F2" style="fill:#F2F2F2;fill:color(display-p3 0.9490 0.9490 0.9490);fill-opacity:1;"/>
<path d="M298.836 141.993C298.165 141.996 297.495 141.999 296.42 141.577C295.939 139.439 295.862 137.727 295.831 137.026C289 138.685 282.505 140.262 276.005 141.505C276.004 140.501 276.006 139.831 276.417 139.09C282.282 137.549 287.738 136.079 293.828 134.439C282.367 131.388 272.092 129.042 262.091 125.843C256.337 124.002 250.338 124.883 245.11 130.937C248.182 132.721 250.875 134.779 253.912 135.926C257.793 137.391 261.952 138.122 265.994 139.496C265.994 140.474 265.991 141.126 265.606 141.812C263.413 141.893 261.603 141.941 259.463 141.989C258.476 141.99 257.817 141.99 257.079 141.569C256.201 140.643 255.404 140.138 254.385 139.493C252.795 150.469 254.023 153.62 259.722 153.001C259.722 154.251 259.676 155.492 259.735 156.727C259.796 157.998 259.96 159.263 260.079 160.531C261.345 160.225 262.663 160.051 263.863 159.578C265.118 159.084 266.261 158.303 267.452 157.647C267.678 157.957 267.905 158.266 268.131 158.576C267.375 159.854 266.618 161.133 265.66 162.753C267.783 162.975 269.386 163.142 270.989 163.31C270.984 164.195 270.979 165.081 270.98 166.299C268.904 166.163 266.812 165.737 264.745 165.213C263.412 164.876 262.114 164.396 260.312 163.547C258.718 162.802 257.612 162.492 256.506 162.181C255.335 159.607 253.792 157.131 253.08 154.435C251.996 150.338 251.557 146.074 250.7 141.91C250.397 140.44 249.912 138.895 249.088 137.668C247.201 134.861 242.788 131.07 243.461 129.754C245.093 126.561 248.728 123.817 252.176 122.342C254.21 121.472 254.896 120.741 255.66 118.952C258.065 113.325 259.881 107.132 263.58 102.473C266.554 98.7265 271.934 96.8906 276.618 94.2666C276.991 94.9845 276.994 95.6429 276.74 96.8964C274.736 98.1556 272.988 98.8196 270.845 99.634C293.365 104.079 308.26 116.382 308.671 138.989C307.971 139 307.27 139.012 305.898 138.877C305.128 136.524 305.029 134.317 304.935 132.214C301.819 131.655 299.956 131.995 299.895 135.393C299.856 137.598 299.21 139.793 298.836 141.993ZM284.646 129.005C291.032 129.005 297.417 129.005 304.038 129.005C300.95 115.29 290.817 109.414 279.513 105.06C270.184 101.466 265.751 103.397 261.368 112.241C260.041 114.917 259.204 117.837 258.083 120.803C258.929 121.26 259.583 121.767 260.322 121.989C268.17 124.347 276.031 126.66 284.646 129.005Z" fill="#FDFDFD" style="fill:#FDFDFD;fill:color(display-p3 0.9922 0.9922 0.9922);fill-opacity:1;"/>
<path d="M67.2496 109.268C60.2168 118.625 53.4412 127.72 45.7227 138.08C45.7227 135.77 45.3148 134.49 45.7822 133.864C57.9557 117.561 70.2956 101.381 82.4478 85.0622C95.0453 68.1449 107.463 51.0936 119.993 34.1257C122.098 31.2745 124.374 28.5491 126.572 25.7656C127.126 26.1989 127.68 26.6323 128.234 27.0656C107.992 54.379 87.7492 81.6923 67.2496 109.268Z" fill="#F9F9F9" style="fill:#F9F9F9;fill:color(display-p3 0.9765 0.9765 0.9765);fill-opacity:1;"/>
<path d="M66.2414 69.252C73.5048 59.4454 80.5105 49.9004 87.5162 40.3555C88.1375 40.8254 88.7589 41.2954 89.3803 41.7654C78.4238 56.6583 67.4673 71.5512 56.5107 86.4441C55.9099 86.0275 55.3091 85.6109 54.7082 85.1942C58.4667 79.9674 62.2251 74.7405 66.2414 69.252Z" fill="#F9F9F9" style="fill:#F9F9F9;fill:color(display-p3 0.9765 0.9765 0.9765);fill-opacity:1;"/>
<path d="M98.2736 111.213C103.601 103.92 108.666 96.881 113.928 89.5684C114.918 93.3697 92.1545 125.509 86.5305 127.212C90.3575 121.964 94.1844 116.715 98.2736 111.213Z" fill="#F9F9F9" style="fill:#F9F9F9;fill:color(display-p3 0.9765 0.9765 0.9765);fill-opacity:1;"/>
<path d="M253.584 418.852C253.737 420.244 253.666 421.367 253.596 422.491C253.062 422.373 252.528 422.254 251.994 422.135C252.45 420.951 252.906 419.767 253.584 418.852Z" fill="#F2F2F2" style="fill:#F2F2F2;fill:color(display-p3 0.9490 0.9490 0.9490);fill-opacity:1;"/>
<path d="M301.459 267.841C299.449 263.831 299.068 258.807 294.121 256.693C293.127 256.268 291.964 256.235 290.161 256.022C288.364 255.134 287.285 254.244 286.206 253.355C288.719 252.879 291.231 252.403 294.133 251.853C294.133 250.175 293.927 248.671 294.191 247.254C294.458 245.816 295.19 244.465 295.719 243.076C296.386 244.354 297.228 245.575 297.669 246.927C298.069 248.15 298.032 249.516 298.311 251.854C309.038 248.378 319.464 245.178 329.714 241.486C331.233 240.938 332.681 238.137 332.842 236.265C333.294 230.989 332.968 225.65 333.154 220.343C333.208 218.82 333.961 217.321 334.393 215.812C335.174 215.92 335.955 216.029 336.736 216.138C336.297 224.12 336.23 232.154 335.151 240.049C334.892 241.943 331.516 244.12 329.155 244.897C319.048 248.224 308.784 251.071 298.585 254.118C298.139 254.252 297.765 254.628 297.748 254.639C299.803 258.588 301.801 262.426 303.664 266.56C302.935 267.132 302.342 267.408 301.459 267.841Z" fill="#F2F2F2" style="fill:#F2F2F2;fill:color(display-p3 0.9490 0.9490 0.9490);fill-opacity:1;"/>
<path d="M273.163 255.009C273.112 250.562 273.061 246.116 273.093 241.309C273.675 240.669 274.176 240.389 275.105 240.041C275.634 244.672 275.735 249.372 275.53 254.547C274.537 255.018 273.85 255.013 273.163 255.009Z" fill="#F2F2F2" style="fill:#F2F2F2;fill:color(display-p3 0.9490 0.9490 0.9490);fill-opacity:1;"/>
<path d="M273.403 239.488C273.07 239.481 272.848 239.24 272.299 239.1C272.435 238.622 272.819 238.117 273.203 237.612C273.333 238.135 273.464 238.657 273.403 239.488Z" fill="#F2F2F2" style="fill:#F2F2F2;fill:color(display-p3 0.9490 0.9490 0.9490);fill-opacity:1;"/>
<path d="M265.994 139.496C269.031 139.113 272.071 139.055 275.56 139.08C276.006 139.831 276.004 140.501 276.005 141.505C272.965 141.892 269.92 141.945 266.432 141.888C265.991 141.126 265.994 140.474 265.994 139.496Z" fill="#F2F2F2" style="fill:#F2F2F2;fill:color(display-p3 0.9490 0.9490 0.9490);fill-opacity:1;"/>
<path d="M259.826 140C260.099 144.667 259.994 149.333 259.889 154C258.926 153.952 257.963 153.904 257 153.856C257 149.702 257 145.548 257.091 140.699C257.938 140.002 258.693 140.001 259.826 140Z" fill="#F2F2F2" style="fill:#F2F2F2;fill:color(display-p3 0.9490 0.9490 0.9490);fill-opacity:1;"/>
<path d="M286.367 252.899C287.285 254.245 288.364 255.134 289.773 256.029C293.889 260.648 296.229 265.729 294.446 272.373C293.967 271.55 293.361 270.776 293.033 269.897C291.807 266.609 290.976 263.125 289.347 260.059C288.726 258.889 286.356 258.647 284.369 257.624C283.658 256.564 283.362 255.863 283.066 255.163C283.44 252.015 283.814 248.867 284.188 245.719C284.968 245.753 285.748 245.786 286.528 245.82C286.528 248.027 286.528 250.234 286.367 252.899Z" fill="#FDFDFD" style="fill:#FDFDFD;fill:color(display-p3 0.9922 0.9922 0.9922);fill-opacity:1;"/>
<path d="M281.162 281.618C277.586 282.066 274.01 282.514 270.017 283.014C273.211 278.01 277.871 279.174 282.363 279.256C282.135 280.219 281.649 280.919 281.162 281.618Z" fill="#F2F2F2" style="fill:#F2F2F2;fill:color(display-p3 0.9490 0.9490 0.9490);fill-opacity:1;"/>
<path d="M276.1 218L278.492 219.257C278.492 219.257 277.651 225.883 275.855 227.709C275.236 227.616 274.618 227.524 274 227.431C274.574 224.216 276.1 218 276.1 218Z" fill="#E9E9E9" style="fill:#E9E9E9;fill:color(display-p3 0.9137 0.9137 0.9137);fill-opacity:1;"/>
<path d="M273.054 255.289C273.85 255.013 274.537 255.018 275.567 255.015C275.91 255.007 276.154 255.035 276.197 255.789C276.287 256.971 276.332 257.398 276.378 257.826C273.111 257.893 269.844 257.961 267.066 257.51C267.708 256.785 267.861 256.578 268.014 256.372C269.658 256.104 271.302 255.837 273.054 255.289Z" fill="#FDFDFD" style="fill:#FDFDFD;fill:color(display-p3 0.9922 0.9922 0.9922);fill-opacity:1;"/>
<path d="M263.02 278.583C264.617 276.694 266.78 275.174 269.532 273.793C270.347 274.139 270.573 274.346 270.799 274.553C268.961 276.081 267.122 277.61 265.072 279.269C264.435 279.25 264.011 279.101 263.02 278.583Z" fill="#FDFDFD" style="fill:#FDFDFD;fill:color(display-p3 0.9922 0.9922 0.9922);fill-opacity:1;"/>
<path d="M281.526 281.616C281.649 280.918 282.135 280.219 282.806 279.24C283.99 278.646 284.992 278.086 285.987 278.099C286.735 278.109 287.472 278.856 288.214 279.275C287.612 279.839 287.097 280.698 286.391 280.905C284.945 281.327 283.397 281.399 281.526 281.616Z" fill="#FDFDFD" style="fill:#FDFDFD;fill:color(display-p3 0.9922 0.9922 0.9922);fill-opacity:1;"/>
<path d="M282.579 255.196C283.362 255.863 283.658 256.564 283.982 257.55C281.902 257.836 279.795 257.836 277.688 257.836C277.672 257.19 277.656 256.544 277.64 255.898C279.124 255.676 280.608 255.453 282.579 255.196Z" fill="#F2F2F2" style="fill:#F2F2F2;fill:color(display-p3 0.9490 0.9490 0.9490);fill-opacity:1;"/>
<path d="M269.818 273.587C270.26 273.297 271.003 273.355 271.747 273.412C271.579 273.668 271.41 273.925 271.021 274.367C270.573 274.347 270.347 274.14 269.818 273.587Z" fill="#FDFDFD" style="fill:#FDFDFD;fill:color(display-p3 0.9922 0.9922 0.9922);fill-opacity:1;"/>
<path d="M267.828 256.215C267.861 256.578 267.708 256.784 267.168 257.033C267.068 256.737 267.355 256.397 267.828 256.215Z" fill="#F2F2F2" style="fill:#F2F2F2;fill:color(display-p3 0.9490 0.9490 0.9490);fill-opacity:1;"/>
<path d="M276.867 257.642C276.332 257.399 276.287 256.971 276.252 255.899C276.627 255.989 276.991 256.723 276.867 257.642Z" fill="#F2F2F2" style="fill:#F2F2F2;fill:color(display-p3 0.9490 0.9490 0.9490);fill-opacity:1;"/>
<path d="M262.862 264.516C263.045 264.439 263.5 264.709 263.872 265.219C263.571 265.261 263.353 265.062 262.862 264.516Z" fill="#FDFDFD" style="fill:#FDFDFD;fill:color(display-p3 0.9922 0.9922 0.9922);fill-opacity:1;"/>
<path d="M464.338 152.783C446.478 146.384 428.932 140.283 411.502 133.867C410.229 133.398 409.085 130.658 409.075 128.967C408.925 101.816 408.968 74.6649 408.968 47.5137C408.968 43.7224 408.968 39.931 408.968 35.5283C431.966 43.2071 454.397 50.6966 476.799 58.1766C476.799 91.1077 476.799 123.867 476.799 156.812C472.579 155.485 468.629 154.243 464.338 152.783ZM450.568 144.961C458.28 147.622 465.992 150.282 473.802 152.977C473.946 152.109 474.097 151.621 474.098 151.133C474.128 121.824 474.187 92.5153 474.034 63.2077C474.027 61.8246 472.396 59.652 471.059 59.1935C451.284 52.4106 431.431 45.8558 411.856 39.3333C411.856 70.037 411.856 100.9 411.856 131.214C424.883 135.926 437.323 140.426 450.568 144.961Z" fill="#E9E9E9" style="fill:#E9E9E9;fill:color(display-p3 0.9137 0.9137 0.9137);fill-opacity:1;"/>
<path d="M462.167 108.636C466.146 111.799 467.935 115.525 466.843 120.195C465.704 125.063 461.172 127.397 455.987 126.054C450.145 134.805 437.179 133.839 429.875 124.913C423.151 116.696 423.771 107.229 424.172 97.7705C424.241 96.1366 426.288 93.9795 427.964 93.1186C439.059 87.4174 454.685 94.0356 459.121 105.962C459.494 106.965 460.955 107.563 462.167 108.636ZM455.233 117.692C455.559 115.199 455.884 112.706 456.251 109.895C444.916 113.622 435.477 111.555 427.07 104.117C425.887 110.965 427.88 116.876 431.182 122.415C434.23 127.531 441.614 130.486 447.98 128.967C453.286 127.701 454.623 123.278 455.233 117.692ZM433.916 99.0168C431.989 99.6378 430.063 100.259 427.958 100.937C434.999 108.97 448 111.51 454.933 106.229C449.01 101.331 442.353 98.9418 433.916 99.0168ZM458.84 115.37C458.262 118.127 457.685 120.883 457.005 124.129C460.324 123.692 463.531 124.028 463.954 119.958C464.379 115.873 464.456 111.782 459.194 110.393C459.013 111.907 458.857 113.218 458.84 115.37ZM431.57 94.9813C429.979 95.5585 428.389 96.1357 426.798 96.7129C426.896 97.1911 426.995 97.6694 427.093 98.1476C436.744 94.2814 445.384 97.0514 454.177 102.427C450.833 96.0933 440.781 92.8222 431.57 94.9813Z" fill="#F2F2F2" style="fill:#F2F2F2;fill:color(display-p3 0.9490 0.9490 0.9490);fill-opacity:1;"/>
<path d="M444.437 84.1159C443.146 85.7142 442.145 87.0406 441.143 88.367C440.506 88.2783 439.869 88.1897 439.231 88.101C445.022 81.8576 440.018 77.0775 438.429 71.8143C436.746 66.2422 438.725 62.0062 444.222 60.749C438.619 66.4934 440.779 71.8239 443.586 77.3558C444.536 79.2292 444.378 81.6651 444.437 84.1159Z" fill="#EDEDED" style="fill:#EDEDED;fill:color(display-p3 0.9294 0.9294 0.9294);fill-opacity:1;"/>
<path d="M452.12 80.0997C451.586 78.2627 451.17 76.7894 450.754 75.3162C451.283 75.2124 451.811 75.1086 452.339 75.0049C455.306 78.3145 456.612 82.1122 454.745 86.4154C454.061 87.9919 452.517 89.1949 450.756 91.2931C451.385 86.6979 451.811 83.5806 452.12 80.0997Z" fill="#F2F2F2" style="fill:#F2F2F2;fill:color(display-p3 0.9490 0.9490 0.9490);fill-opacity:1;"/>
<circle cx="268" cy="152" r="2" fill="#FDFDFD" style="fill:#FDFDFD;fill:color(display-p3 0.9922 0.9922 0.9922);fill-opacity:1;"/>
<circle cx="277" cy="152" r="2" fill="#FDFDFD" style="fill:#FDFDFD;fill:color(display-p3 0.9922 0.9922 0.9922);fill-opacity:1;"/>
<path d="M266 170C267.6 171.87 272.24 174.794 278 171.53" stroke="white" style="stroke:white;stroke-opacity:1;" stroke-width="2" stroke-linecap="round"/>
</g>
<defs>
<clipPath id="clip0_67_9">
<rect width="512" height="512" fill="white" style="fill:white;fill-opacity:1;"/>
</clipPath>
</defs>
</svg>
