<svg width="1065" height="1032" viewBox="0 0 1065 1032" fill="none" xmlns="http://www.w3.org/2000/svg">
<path d="M423.32 884.762C422.692 878.407 424.387 867.76 427.099 861.026C427.813 859.255 428.129 857.86 427.874 857.604C427.618 857.349 426.013 857.768 423.938 858.634C417.259 861.419 406.186 863.739 396.985 864.279C379.82 865.288 360.925 859.215 356.212 851.174C354.93 848.987 354.877 848.643 354.902 842.658C354.956 829.471 359.386 816.768 366.435 809.588C371.369 804.561 376.256 801.564 382.805 799.55C386.629 798.373 392.953 795.063 393.704 793.845C393.899 793.528 394.182 792.506 394.333 791.573C394.585 790.013 394.79 789.832 396.908 789.306C398.449 788.924 399.948 788.057 401.447 786.681C404.943 783.471 405.497 782.635 404.888 781.494C404.164 780.136 404.999 778.757 406.784 778.364C408.693 777.944 409.897 776.127 411.064 771.904C412.416 767.01 413.75 764.474 415.971 762.567C418.065 760.77 421.782 759.608 424.007 760.054C425.842 760.422 426.255 759.805 427.183 755.303L427.963 751.523L426.862 750.788C424.221 749.023 421.781 746.073 421.178 743.913C420.327 740.868 420.64 739.01 427.414 706.869C433.99 675.662 435.08 670.641 435.8 668.207C436.486 665.891 436.613 665.755 437.845 666.002C438.568 666.147 443.02 667.919 447.74 669.94C452.46 671.961 459.767 675.081 463.978 676.873C468.188 678.665 475.94 682.011 481.204 684.308C501.322 693.088 510.299 696.627 513.142 696.901C519.976 697.558 528.583 694.709 555.853 682.756C559.8 681.026 566.26 678.263 570.208 676.617C574.156 674.971 582.877 671.258 589.588 668.367C596.299 665.475 607.066 660.893 613.514 658.185C619.962 655.477 628.144 652.007 631.697 650.474C635.25 648.941 642.141 646.069 647.01 644.091C662.713 637.712 673.685 632.888 676.531 631.11C681.494 628.01 686.027 623.787 687.629 620.772C689.861 616.572 690.729 612.581 690.386 608.094C689.718 599.352 684.88 594.002 672.85 588.699C669.823 587.364 662.717 584.232 657.059 581.736C651.4 579.241 644.079 576.063 640.789 574.674C637.499 573.284 631.748 570.686 628.009 568.899L621.211 565.652L612.608 565.918C606.376 566.111 603.405 566.016 601.825 565.573C599.86 565.021 599.414 565.061 597.28 565.982C595.559 566.724 593.959 566.996 591.413 566.981C587.462 566.957 585.083 566.257 582.658 564.402C581.039 563.164 580.952 563.151 579.471 563.919C575.141 566.164 566.745 567.946 560.398 567.966C554.135 567.986 548.219 570.155 539.64 575.577C530.651 581.258 527.694 582.171 524.161 580.355C523.22 579.871 521.42 579.552 519.558 579.537C517.876 579.524 515.977 579.275 515.339 578.983C514.039 578.39 510.86 579.41 504.651 582.415C499.107 585.098 498.31 584.953 483.357 578.548C466.917 571.505 457.428 567.481 435.027 558.052C429.106 555.559 422.538 552.754 420.433 551.818C413.379 548.683 399.927 542.961 392.391 539.89C388.285 538.217 383.44 536.17 381.625 535.341C379.809 534.512 376.17 532.949 373.538 531.868C370.906 530.787 368.303 529.611 367.753 529.255C366.567 528.486 365.278 524.433 358.703 500.787C349.728 468.508 348.902 465.475 347.936 461.259C347.399 458.915 346.223 454.488 345.322 451.422C344.421 448.356 342.18 440.45 340.341 433.853C334.884 414.272 334.994 414.9 337.024 414.9C337.942 414.9 354.169 420.976 371.863 427.944C381.514 431.745 388.82 434.556 396.507 437.426C399.928 438.703 405.85 440.98 409.666 442.485C413.482 443.99 422.418 447.448 429.524 450.17C473.533 467.026 469.544 465.335 470.871 467.702C471.456 468.745 472.19 469.599 472.502 469.599C473.701 469.598 479.49 466.521 483.991 463.493C491.466 458.462 494.07 454.996 503.916 436.972C513.622 419.202 520.584 407.898 528.609 396.875C531.355 393.102 533.602 389.913 533.602 389.787C533.602 389.661 531.821 387.751 529.644 385.544C526.78 382.64 525.14 380.473 523.71 377.703C518.151 366.937 515.925 355.571 515.85 337.562L515.812 328.51L514.299 327.873C510.548 326.292 507.592 321.306 506.32 314.41C505.411 309.488 505.968 298.29 507.288 294.932C507.836 293.538 508.113 292.231 507.903 292.025C507.694 291.82 505.357 290.567 502.709 289.242C495.333 285.547 491.813 281.978 490.943 277.307C490.403 274.407 491.144 271.821 493.15 269.608C495.305 267.229 496.973 266.407 505.959 263.294L513.622 260.639L514.709 256.32C516.77 248.134 520.558 239.824 525.158 233.404C526.625 231.355 528.414 228.656 529.135 227.406C532.628 221.339 537.835 215.92 543.202 212.765C548.829 209.457 558.391 207.139 566.407 207.139C568.314 207.139 568.931 206.869 570.802 205.218C575.738 200.861 583.951 197.671 591.405 197.216C606.716 196.281 620.935 205.275 628.709 220.814C631.19 225.773 634.09 236.336 634.09 240.414C634.09 241.615 634.583 242.66 635.911 244.271C639.712 248.884 642.9 257.018 643.756 264.292C644.219 268.223 644.184 269.395 643.517 272.209C642.931 274.68 642.713 278.211 642.651 286.216L642.567 296.919L644.017 298.451C645.894 300.435 646.695 302.104 647.745 306.221C648.846 310.537 648.853 319.577 647.759 324.934C646.222 332.459 641.612 339.452 636.152 342.541C634.755 343.332 633.611 344.183 633.611 344.432C633.611 345.783 636.108 349.374 639.563 352.989C643.784 357.406 645.678 359.962 647.684 363.946C649.098 366.752 649.7 367.115 657.537 369.887C659.774 370.679 665.696 372.946 670.696 374.926C694.136 384.208 704.307 390.924 713.434 403.144C717.811 409.006 720.669 414.801 723.812 424.186L726.204 431.331L738.167 437.397C752.064 444.443 756.057 446.967 760.657 451.614C766.206 457.218 768.9 462.821 770.296 471.662C771.583 479.805 770.598 487.423 764.923 513.263C764.256 516.297 762.969 522.235 762.063 526.458C754.732 560.618 753.974 562.893 748.679 566.636C747.034 567.798 746.486 568.528 746.264 569.85C745.517 574.312 743.503 585.071 742.486 590.033C741.864 593.068 741.113 597.279 740.818 599.39C740.522 601.501 739.954 604.728 739.555 606.561C738.622 610.855 737.807 615.362 735.794 627.375L734.16 637.127L735.785 639.261C737.901 642.041 738.39 643.865 738.727 650.251C739.043 656.232 738.377 661.641 736.988 664.37C736.102 666.113 734.077 668.179 731.773 669.69L730.665 670.417L731.461 673.493C732.41 677.169 735.465 690.56 739.403 708.309C740.984 715.434 743.123 724.934 744.156 729.421C746.409 739.211 747.788 745.404 750.617 758.45C751.791 763.859 753.703 772.388 754.868 777.402C756.033 782.416 757.13 787.506 757.308 788.714C758.015 793.528 754.821 796.801 749.053 797.169C745.454 797.399 743.507 796.577 741.928 794.161C741.468 793.457 739.971 788.534 738.602 783.222C733.173 762.168 731.527 755.886 728.836 745.974C727.297 740.3 724.825 730.908 723.343 725.102C721.862 719.296 719.269 709.58 717.582 703.51C715.895 697.441 713.828 689.918 712.99 686.794C712.153 683.67 711.221 681.019 710.921 680.904C710.621 680.788 704.678 683.532 697.714 687.001C671.904 699.857 647.283 711.13 638.861 713.95C638.052 714.221 636.903 727.016 634.347 764.207C634.086 768.015 632.974 784.233 632.177 795.875C631.915 799.702 631.268 809.31 630.74 817.227C628.596 849.396 628.77 848.282 625.525 850.448C622.608 852.396 616.995 851.723 614.71 849.15C613.793 848.118 613.753 847.396 613.755 831.93C613.757 823.052 614.039 800.242 614.381 781.241C614.724 762.24 615.046 739.7 615.097 731.153L615.188 715.612L612.078 714.753C608.348 713.722 599.721 710.383 583.642 703.746C574.986 700.173 571.517 698.948 570.993 699.28C570.215 699.772 569.11 704.802 567.585 714.786C567.081 718.085 566.345 722.619 565.95 724.862C565.554 727.105 564.458 733.475 563.513 739.017C562.568 744.559 561.355 751.468 560.816 754.371C560.278 757.274 559.222 763.361 558.47 767.899C557.717 772.437 556.744 776.841 556.308 777.688C555.143 779.946 552.886 781.885 549.577 783.469L546.651 784.869L546.356 788.813C546.194 790.982 545.919 795.177 545.746 798.135L545.431 803.513L546.93 805.226C549.08 807.681 550.346 810.39 551.615 815.254C553.727 823.349 554.315 829.611 554.368 844.577C554.423 860.177 554.238 861.439 551.432 864.553C549.283 866.937 542.677 870.877 534.66 874.555C524.319 879.298 514.861 883.912 511.155 886.021C507.742 887.962 507.475 888.032 503.985 887.899L500.36 887.76L503.702 885.777C511.608 881.085 518.456 877.534 527.859 873.252C542.496 866.587 547.908 863.448 549.541 860.676C550.514 859.024 551.183 852.771 550.436 852.308C550.152 852.132 548.455 852.996 546.665 854.229C543.454 856.441 537.393 859.502 525.228 865.054C521.806 866.615 514.916 870.079 509.915 872.752C493.114 881.733 489.094 883.383 478.481 885.65C472.697 886.886 459.655 887.394 454.209 886.596C444.345 885.15 435.211 881.24 429.641 876.081C428.815 875.316 428.154 875.029 427.872 875.312C427.625 875.562 427.277 877.708 427.099 880.083C426.845 883.484 426.936 884.784 427.528 886.201L428.279 888H425.959H423.64L423.32 884.762ZM471.155 882.729C475.17 882.302 484.731 880.118 487.828 878.92C489.148 878.409 489.179 878.32 488.866 875.88C488.118 870.041 486.519 863.459 484.758 858.971C481.548 850.791 477.302 846.101 469.48 842.096C465.909 840.268 465.863 840.258 460.143 840.258H454.394L449.855 842.472C444.014 845.32 440.068 848.278 436.676 852.351C433.135 856.605 429.672 863.656 429.378 867.213L429.159 869.861L432.056 872.625C435.085 875.515 441.228 879.015 446.013 880.575C452.95 882.837 462.461 883.651 471.155 882.729ZM497.952 874.644C499.794 873.646 504.747 870.965 508.958 868.687C513.169 866.41 520.239 862.913 524.668 860.917C540.175 853.932 547.123 849.933 549.589 846.574C552.551 842.541 548.506 809.79 545.047 809.79C544.775 809.79 544.148 810.707 543.651 811.829C542.352 814.766 539.653 817.15 535.278 819.228C531.694 820.93 531.163 821.045 526.904 821.055C524.403 821.061 521.798 820.889 521.116 820.673C519.929 820.297 519.79 820.458 517.904 824.4C515.138 830.181 512.203 834.143 506.071 840.378C501.992 844.525 500.472 845.776 497.789 843.61C497.879 843.515 499.998 841.318 502.498 838.729C513.661 827.168 518.332 817.409 516.891 808.659C515.984 803.15 514.164 801.47 505.07 797.746C501.885 796.441 500.009 795.926 499.143 796.116C497.034 796.581 493.7 800.557 491.07 805.745C489.723 808.402 488.621 810.828 488.621 811.136C488.621 811.444 489.363 812.008 490.271 812.388C496.007 814.791 502.977 821.692 502.977 824.969C502.977 826.283 502.792 826.584 501.983 826.584C501.437 826.584 500.522 826.02 499.949 825.332C496.753 821.487 495.414 820.126 493.571 818.855C491.253 817.256 487.057 815.068 486.309 815.068C486.035 815.068 484.614 816.89 483.152 819.116C481.689 821.343 480.276 823.298 480.011 823.462C479.1 824.027 479.536 824.532 482.52 826.369C485.959 828.487 490.791 832.918 491.806 834.885C492.591 836.407 492.311 837.866 491.149 838.313C490.589 838.528 489.552 837.713 487.538 835.476C484.782 832.414 479.641 828.861 477.137 828.287C476.176 828.068 475.232 828.589 472.352 830.93C470.378 832.534 468.171 834.161 467.447 834.546C465.341 835.665 465.857 836.549 469.241 837.62C470.294 837.953 472.409 838.956 473.942 839.848C483.61 845.473 489.505 855.453 491.759 870.007C492.209 872.91 492.649 875.555 492.737 875.885C493.006 876.888 494.443 876.546 497.952 874.644ZM403.489 859.646C407.901 859.069 417.762 856.82 421.136 855.621C428.595 852.97 431.435 851.383 435.267 847.723C441.384 841.88 446.865 838.633 454.269 836.464C459.562 834.914 459.68 834.863 463.26 832.642C470.094 828.401 477.974 820.96 479.937 816.894C482.126 812.36 481.117 811.913 476.384 815.318C470.106 819.835 464.378 823.192 453.929 828.48C426.638 842.291 415.772 846.357 402.536 847.711C387.437 849.255 369.487 845 361.523 837.989C360.352 836.958 359.7 836.668 359.347 837.023C358.562 837.809 358.248 845.342 358.915 847.369C360.668 852.695 369.547 857.364 381.912 859.463C386.451 860.234 398.223 860.333 403.489 859.646ZM623.967 846.482C625.051 845.099 624.916 846.438 626.669 819.626C627.341 809.334 628.104 797.998 628.362 794.436C628.621 790.873 629.063 784.396 629.342 780.041C629.96 770.407 630.441 763.65 631.425 750.772C634.249 713.797 634.179 715.46 632.894 715.64C632.367 715.714 629.184 715.907 625.821 716.07C622.457 716.232 619.598 716.538 619.467 716.751C619.336 716.963 619.028 731.021 618.783 747.989C618.537 764.958 618.223 784.456 618.084 791.317C617.474 821.426 617.252 844.738 617.565 845.727C618.261 847.924 622.448 848.417 623.967 846.482ZM406.83 843.083C409.311 842.657 412.094 842.059 413.016 841.754L414.69 841.199L414.627 836.651C414.401 820.477 405.226 807.448 391.482 803.785C387.764 802.794 385.296 802.902 381.699 804.211C372.892 807.416 365.864 814.495 362.308 823.74C360.22 829.171 360.336 830.697 363.076 833.753C364.789 835.663 366.399 836.763 370.134 838.576C377.771 842.283 384.826 843.749 395.346 843.814C399.774 843.841 403.966 843.574 406.83 843.083ZM423.543 838.354C429.51 835.934 439.66 831.171 451.775 825.107C468.605 816.683 476.606 811.308 479.381 806.559L480.661 804.368L480.076 794.244C479.754 788.676 479.122 781.963 478.672 779.325C477.691 773.572 477.07 773.123 474.691 776.445C472.588 779.382 468.364 782.138 463.574 783.699C460.133 784.821 458.878 784.974 452.972 784.996C448.745 785.012 445.765 784.807 444.898 784.44C443.068 783.666 442.497 784.213 441.779 787.429C440.505 793.137 434.734 802.524 429.557 807.309C426.728 809.924 425.257 810.619 424.275 809.802C423.027 808.763 423.429 807.931 427.023 804.122C434.74 795.942 438.586 788.314 439.173 780.026C439.668 773.021 437.72 769.8 430.96 766.453C426.566 764.278 423.635 763.594 421.126 764.159C417.77 764.916 416.533 766.567 415.158 772.124C414.701 773.972 413.807 776.427 413.171 777.58C412.534 778.733 412.084 779.748 412.171 779.834C412.258 779.921 414.044 780.855 416.141 781.909C422.467 785.09 427.709 790.608 427.28 793.633C427.176 794.361 426.743 794.72 425.841 794.825C424.756 794.95 424.395 794.671 423.587 793.084C423.059 792.044 421.594 790.281 420.333 789.166C417.937 787.046 412.208 783.88 410.768 783.88C409.822 783.88 403.924 789.533 403.924 790.439C403.924 790.764 405.667 791.938 407.798 793.05C414.262 796.421 419.347 801.923 417.766 803.834C416.874 804.911 416.431 804.691 413.036 801.48C409.871 798.486 401.983 793.956 399.934 793.956C398.769 793.956 393.323 798.746 393.498 799.616C393.574 799.994 395.016 800.803 396.702 801.415C404.976 804.415 412.417 812.193 415.793 821.367C417.084 824.877 418.758 833.612 418.758 836.844C418.758 839.453 419.054 840.209 419.929 839.832C420.206 839.713 421.832 839.048 423.543 838.354ZM532.827 816.026C536.201 814.738 538.933 812.384 540.272 809.61C541.081 807.934 541.384 805.698 541.971 797.065C542.364 791.286 542.519 786.392 542.316 786.188C542.113 785.985 541.092 786.075 540.047 786.387C538.951 786.716 535.009 786.964 530.73 786.974C522.938 786.992 517.966 786.258 512.547 784.289C508.809 782.931 508.102 782.941 507.71 784.36C506.869 787.398 505.788 791.88 505.703 792.681C505.629 793.371 506.663 794.028 510.394 795.668C518.659 799.298 520.958 802.857 520.815 811.798C520.746 816.085 520.952 816.628 522.835 817.148C524.743 817.675 530.076 817.076 532.827 816.026ZM488.4 802.423C492.301 795.246 495.242 792.444 499.609 791.744C502.288 791.315 502.907 790.214 503.509 784.814L504.005 780.357L501.596 778.041C498.201 774.777 497.909 773.508 498.602 765.049C498.91 761.288 499.588 754.863 500.108 750.772C502.23 734.092 505.898 702.994 506.016 700.687C506.084 699.362 505.852 699.203 500.599 696.968C497.58 695.684 494.843 694.634 494.515 694.634C494.187 694.634 493.707 695.029 493.45 695.511C493.192 695.994 490.48 708.895 487.422 724.18C482.517 748.703 481.698 752.244 480.457 754.283C479.439 755.956 479.051 757.203 479.051 758.802C479.051 760.016 478.82 762.341 478.537 763.967C478.034 766.864 478.058 766.989 479.676 770.005C480.584 771.698 481.57 774.101 481.866 775.345C482.813 779.32 483.79 789.299 484.131 798.478C484.383 805.273 484.609 807.391 485.081 807.391C485.421 807.391 486.914 805.155 488.4 802.423ZM750.82 793.17C751.661 793.001 752.665 792.379 753.052 791.787C753.849 790.567 753.982 791.372 750.142 774.284C748.926 768.874 747.518 762.396 747.012 759.889C746.506 757.382 745.539 752.956 744.862 750.053C742.749 740.988 738.909 723.948 737.455 717.185C733.184 697.321 727.434 673.119 726.909 672.794C726.462 672.517 715.63 678.099 715.172 678.842C715.023 679.084 715.759 682.358 716.807 686.118C719.455 695.618 723.806 711.82 727.599 726.302C729.361 733.031 731.737 741.992 732.879 746.214C734.021 750.437 735.642 756.59 736.483 759.889C737.324 763.188 738.766 768.586 739.688 771.884C740.61 775.183 741.998 780.441 742.771 783.569C743.544 786.697 744.484 789.993 744.859 790.894C745.795 793.14 747.577 793.82 750.82 793.17ZM535.755 782.713C542.822 782.261 550.54 779.41 552.226 776.63C553.403 774.69 553.914 771.957 561.371 727.741C565.415 703.77 567.002 695.229 567.636 694.041C568.277 692.841 567.498 692.575 585.521 700.122C599.861 706.126 610.874 710.337 614.921 711.363C619.448 712.511 626.462 712.724 631.697 711.875C636.733 711.057 650.632 705.264 670.457 695.721C674.01 694.01 680.362 690.99 684.573 689.008C688.784 687.026 700.56 681.213 710.741 676.09C731.881 665.454 733.151 664.58 734.337 659.866C735.141 656.67 735.316 647.829 734.584 647.376C734.324 647.214 732.655 647.925 730.875 648.955C723.502 653.22 695.887 667.606 684.095 673.323C668.596 680.838 648.821 689.363 638.875 692.818C632.616 694.992 631.421 695.252 626.673 695.47C621.574 695.703 621.242 695.655 616.094 693.937C609.571 691.76 607.771 690.732 607.771 689.181C607.771 688.155 608.445 687.764 614.112 685.503C617.599 684.112 624.759 681.145 630.022 678.908C673.264 660.536 680.735 656.489 691.779 645.458C699.513 637.733 704.037 630.535 707.766 620.022C711.004 610.895 711.678 606.747 711.938 594.352C712.232 580.285 712.424 580.73 707.063 583.048C701.933 585.266 696.069 586.918 689.773 587.916C686.913 588.369 684.383 588.908 684.151 589.114C683.919 589.32 685.338 591.068 687.305 593C692.433 598.035 694.396 602.658 694.375 609.651C694.365 612.957 693.313 618.104 692.086 620.851C689.752 626.08 684.201 631.454 677.156 635.308C673.268 637.435 662.202 642.327 651.556 646.626C647.082 648.433 636.961 652.655 629.065 656.01C621.17 659.365 610.942 663.686 606.336 665.612C601.73 667.538 585.042 674.664 569.251 681.447C527.265 699.482 523.393 700.871 515.143 700.871C512.2 700.871 510.594 701.07 510.276 701.471C509.835 702.03 509.578 703.829 508.238 715.746C507.956 718.253 506.891 727.105 505.872 735.418C502.669 761.548 501.849 769.632 502.209 771.551C502.862 775.033 508.324 778.859 515.795 781.07C519.285 782.102 528.184 783.332 530.491 783.102C531.281 783.023 533.649 782.848 535.755 782.713ZM461.654 779.988C470.536 777.246 473.378 773.889 474.372 764.965C474.772 761.375 474.789 759.742 474.428 759.38C474.067 759.018 473.024 759.104 470.862 759.674C468.401 760.321 466.406 760.43 460.628 760.231C452.161 759.939 444.721 758.439 437.068 755.479C434.375 754.438 431.981 753.703 431.75 753.847C431.518 753.99 431.069 755.43 430.752 757.047C430.435 758.664 430.069 760.263 429.94 760.601C429.79 760.991 431.035 761.875 433.345 763.02C439.623 766.13 443.162 771.163 443.162 776.98C443.162 778.381 443.41 779.658 443.719 779.85C444.924 780.596 447.465 780.905 452.802 780.952C457.218 780.991 459.055 780.791 461.654 779.988ZM472.112 755.329C476.633 754.137 477.329 753.146 479.017 745.494C480.3 739.678 481.91 731.767 484.876 716.705C485.421 713.934 486.703 707.626 487.723 702.687C488.743 697.748 489.578 693.487 489.578 693.218C489.578 692.496 485.689 690.657 469.48 683.717C442.133 672.007 439.72 671.024 439.337 671.433C438.911 671.888 437.066 680.045 433.871 695.593C432.705 701.267 430.215 713.251 428.337 722.223C426.46 731.196 424.882 739.658 424.831 741.028C424.748 743.27 424.901 743.687 426.369 745.206C430.389 749.369 442.073 753.86 453.942 755.802C459.132 756.652 467.968 756.422 472.112 755.329ZM636.102 689.671C640.475 688.23 656.65 681.567 665.607 677.517C679.128 671.404 705.759 658.151 717.83 651.529C721.646 649.435 726.599 646.748 728.836 645.558C731.642 644.065 732.903 643.125 732.903 642.527C732.903 641.885 731.418 640.986 727.161 639.052C724.003 637.617 718.404 635.058 714.72 633.365C709.615 631.02 707.932 630.436 707.65 630.913C707.446 631.257 706.389 633.049 705.3 634.896C697.837 647.559 685.788 657.952 669.021 666.189C664.189 668.563 654.867 672.683 642.703 677.82C621.869 686.62 617.556 688.49 617.126 688.91C616.45 689.573 617.552 690.467 619.873 691.138C623.529 692.195 630.298 691.584 636.102 689.671ZM731.097 631.534C732.191 624.682 733.673 616.357 735.324 607.787C736.214 603.168 737.365 596.907 737.882 593.872C738.399 590.837 739.601 584.273 740.552 579.286C741.504 574.298 742.11 570.056 741.899 569.859C741.689 569.661 740.119 569.64 738.412 569.811C735.591 570.093 735.245 570.249 734.643 571.512C734.012 572.834 731.62 583.884 729.023 597.471C728.367 600.901 727.203 606.623 726.436 610.186C725.669 613.748 724.366 619.794 723.541 623.621C722.715 627.447 722.008 630.966 721.969 631.441C721.916 632.075 722.847 632.736 725.486 633.937C727.46 634.835 729.392 635.525 729.78 635.469C730.271 635.399 730.67 634.211 731.097 631.534ZM718.301 628.779C718.746 627.715 720.949 617.598 723.289 605.867C723.948 602.569 725.796 593.5 727.397 585.715C728.998 577.93 730.354 570.939 730.409 570.179C730.502 568.922 730.294 568.724 728.118 567.976C723.424 566.365 723.143 566.357 722.534 567.831C720.359 573.106 719.476 574.623 717.516 576.453L715.333 578.491L715.897 584.98C716.946 597.03 715.128 611.801 711.349 621.94C710.391 624.51 709.915 626.432 710.172 626.69C710.755 627.274 716.478 629.828 717.242 629.845C717.576 629.852 718.054 629.372 718.301 628.779ZM683.046 585.209C698.318 582.963 708.243 579.275 714.298 573.595C719.522 568.695 720.271 565.297 720.509 545.41C720.689 530.393 720.375 523.786 719.467 523.485C719.183 523.391 717.854 525.101 716.514 527.285C707.675 541.691 693.366 550.824 670.457 556.681C660.524 559.221 656.784 559.992 643.899 562.153C633.542 563.89 630.501 564.558 630.501 565.095C630.501 565.543 634.008 567.311 640.311 570.042C651.533 574.905 663.162 580.037 670.457 583.345C675.939 585.831 677.373 586.043 683.046 585.209ZM507.04 576.926L511.821 574.848L511.667 571.511C511.478 567.403 512.484 564.479 515.586 560.12C519.079 555.212 525.707 549.767 532.152 546.512C535.874 544.632 537.699 544.471 538.176 545.98C538.593 547.299 538.023 547.775 531.949 551.185C525.685 554.7 518.941 560.998 516.824 565.31C514.328 570.395 514.985 574.615 518.454 575.774C520.181 576.351 520.981 575.639 521.832 572.764C522.204 571.51 522.878 569.767 523.329 568.891C525.945 563.819 538.535 554.047 542.453 554.047C543.824 554.047 544.529 555.224 543.827 556.34C543.577 556.737 541.375 558.322 538.934 559.863C533.53 563.273 531.189 565.226 528.207 568.813C524.341 573.464 524.132 577.078 527.729 577.078C529.522 577.078 532.386 575.575 539.684 570.803C546.6 566.281 552.421 564.486 562.821 563.668C566.391 563.387 570.506 562.846 571.966 562.465C578.893 560.656 583.299 557.431 585.562 552.516C586.848 549.723 586.952 549.081 586.909 544.211C586.858 538.573 586.046 535.364 583.641 531.294C581.987 528.494 578.276 525.046 575.333 523.575C572.831 522.324 572.72 522.313 565.524 522.619C548.309 523.349 531.809 526.823 522.026 531.777C513.78 535.954 506.986 542.679 503.59 550.028C502.615 552.137 502.265 553.694 502.199 556.206C502.151 558.054 502.09 559.85 502.065 560.198C502.038 560.572 501.578 560.768 500.943 560.678C499.442 560.464 498.524 557.51 498.803 553.794C498.951 551.832 499.562 549.748 500.703 547.316C502.683 543.093 503.891 541.414 507.865 537.363C511.42 533.738 511.365 533.627 505.13 531.712C502.761 530.984 497.846 529.208 494.208 527.764C490.353 526.234 487.415 525.316 487.167 525.564C486.634 526.099 499.253 577.226 500.361 579.025C500.733 579.628 501.065 579.523 507.04 576.926ZM734.32 565.264C737.532 564.028 744.307 539.466 752.28 500.158C756.173 480.965 756.006 472.596 751.58 465.022C749.424 461.334 743.844 456.688 737.276 453.114C733.547 451.084 730.932 449.938 730.451 450.123C729.807 450.371 729.721 450.903 729.955 453.174C731.049 463.793 730.672 478.05 729.007 489.032C728.279 493.83 726.128 503.985 724.791 508.931C724.209 511.085 724.073 516.123 724.034 536.982L723.986 562.408L725.813 563.07C726.818 563.434 728.932 564.128 730.511 564.611C732.09 565.094 733.418 565.506 733.462 565.526C733.507 565.546 733.893 565.428 734.32 565.264ZM745.973 563.792C750.132 561.406 751.271 558.148 756.339 534.135C757.23 529.912 758.75 522.895 759.716 518.541C764.8 495.642 766.041 489.183 766.643 482.491C767.524 472.693 765.955 465.833 761.192 458.648C757.122 452.509 751.778 448.687 736.879 441.257C730.984 438.318 728.049 437.089 727.717 437.422C727.386 437.754 727.449 438.875 727.915 440.92L728.601 443.929L736.177 447.852C744.98 452.412 749.941 456.031 753.064 460.169C760.098 469.493 760.698 479.526 755.637 503.186C754.819 507.013 753.94 511.223 753.686 512.543C750.293 530.111 743.858 554.75 740.94 561.347C739.402 564.823 739.668 565.721 742.109 565.292C743.099 565.118 744.838 564.443 745.973 563.792ZM596.57 561.604C599.498 559.624 601.334 556.026 602.347 550.286C604.364 538.853 600.276 527.081 592.155 520.933C588.822 518.41 585.715 517.685 581.781 518.515C578.769 519.15 577.733 520.264 579.334 521.147C579.842 521.427 581.686 523.097 583.432 524.857C588.212 529.675 590.262 534.581 590.854 542.619C591.358 549.458 589.916 554.688 586.386 558.822C585.235 560.171 584.832 560.986 585.157 561.312C586.061 562.218 589.342 563.121 591.807 563.143C593.808 563.16 594.693 562.874 596.57 561.604ZM620.213 561.472C624.555 561.071 629.508 560.525 631.219 560.258C682.178 552.305 698.895 545.357 712.264 526.57C714.944 522.806 718.233 516.211 720.146 510.77C724.11 499.496 727.389 475.48 726.686 462.882C725.291 437.884 718.931 416.362 709.416 404.438C700.952 393.83 690.739 387.201 671.175 379.613C667.227 378.082 661.305 375.772 658.016 374.48C654.726 373.187 651.711 372.091 651.316 372.043C650.725 371.972 650.592 372.759 650.561 376.515C650.474 387.185 644.54 401.033 634.628 413.7C630.605 418.842 623.53 425.936 622.426 425.936C621.818 425.936 618.089 422.567 612.276 416.766L603.088 407.596L599.807 408.898C598.003 409.614 596.362 410.353 596.162 410.54C595.786 410.892 595.138 433.846 594.59 466.241C594.419 476.401 594.113 490.975 593.913 498.628C593.712 506.281 593.693 512.707 593.87 512.908C594.574 513.706 620.148 507.316 633.107 503.106C639.895 500.9 651.073 496.619 654.236 495.013C658.854 492.668 661.793 490.191 663.075 487.564C664.23 485.196 664.338 484.37 664.735 474.797C664.968 469.167 665.168 460.283 665.177 455.053C665.194 445.293 665.46 443.689 667.066 443.689C669.177 443.689 669.2 443.996 668.673 465.421C668.089 489.156 668.158 488.78 663.556 493.377C661.413 495.518 659.452 496.866 656.102 498.504C649.878 501.547 636.292 506.552 627.11 509.185C618.789 511.57 601.553 515.902 598.33 516.417C595.023 516.946 594.882 517.686 597.584 520.326C600.384 523.061 603.5 528.196 604.873 532.334C607.654 540.72 607.175 553.693 603.878 559.302C602.951 560.879 602.945 560.987 603.755 561.581C604.892 562.415 610.386 562.378 620.213 561.472ZM518.247 529.362C519.741 528.452 521.977 527.272 523.215 526.74C526.48 525.336 526.202 524.654 521.637 522.87C520.19 522.304 517.54 521.168 515.747 520.346L512.486 518.851L507.851 520.36C505.302 521.19 502.139 522.121 500.823 522.427C498.205 523.037 496.754 524.033 497.494 524.712C497.746 524.943 500.728 526.046 504.121 527.163C507.513 528.28 511.174 529.588 512.255 530.071C514.942 531.269 515.157 531.244 518.247 529.362ZM541.019 521.657C544.177 520.927 546.917 520.192 547.107 520.024C547.297 519.856 547.707 512.534 548.019 503.754C548.472 490.956 548.465 487.675 547.982 487.211C547.51 486.758 547.283 486.789 546.936 487.352C546.693 487.748 545.576 489.629 544.456 491.532C538.849 501.051 530.044 509.751 521.16 514.549C519.713 515.33 518.528 516.264 518.528 516.624C518.528 517.002 520.854 518.28 524.03 519.645C527.056 520.946 529.963 522.322 530.49 522.702C531.688 523.565 533.569 523.379 541.019 521.657ZM499.388 518.816C515.252 514.432 523.769 509.764 532.44 500.7C534.54 498.505 537.278 495.274 538.525 493.521C541.265 489.665 547.124 478.438 548.128 475.117C548.705 473.208 548.899 468.797 549.079 453.525C549.203 442.969 549.449 433.971 549.625 433.53C550.105 432.327 551.153 432.121 552.131 433.037C552.96 433.813 552.987 435.058 552.681 458.803C552.504 472.526 552.122 491.623 551.832 501.242C551.534 511.096 551.484 518.911 551.718 519.145C552.163 519.591 568.057 518.611 568.64 518.101C568.831 517.934 569.208 508.627 569.479 497.417C570.87 439.851 571.4 427.791 573.098 415.14C573.735 410.39 574.387 406.042 574.547 405.478C574.707 404.914 574.604 404.308 574.318 404.131C573.738 403.771 572.77 404.429 563.609 411.421C557.47 416.107 556.015 416.899 555.396 415.896C555.245 415.651 555.442 413.546 555.833 411.217C556.224 408.888 556.604 404.84 556.677 402.221L556.81 397.46L552.264 396.621C546.766 395.607 543.205 394.542 540.197 393.015C538.956 392.384 537.76 391.869 537.54 391.869C536.72 391.869 527.55 405.012 520.467 416.339C516.109 423.307 512.602 429.414 505.966 441.588C497.826 456.522 494.939 460.442 488.483 465.337C486.322 466.976 482.114 469.496 479.132 470.938C476.15 472.381 473.611 473.819 473.49 474.134C473.369 474.45 474.158 478.148 475.242 482.35C478.362 494.443 481.754 508.372 482.568 512.434C482.979 514.486 483.595 516.747 483.935 517.458C484.731 519.122 487.909 520.923 490.057 520.927C490.978 520.929 495.177 519.979 499.388 518.816ZM575.707 516.624C577.773 515.149 582.541 514.114 586.417 514.299L589.827 514.462L590.123 502.227C590.286 495.497 590.571 480.815 590.755 469.599C590.94 458.383 591.279 440.894 591.508 430.734C591.967 410.343 592.058 411.061 589.008 411.061C587.233 411.061 582.036 408.929 580.666 407.637C578.298 405.407 577.932 406.616 576.213 422.337C575.252 431.127 574.509 445.866 574.048 465.281C573.907 471.219 573.552 485.083 573.258 496.092C572.964 507.1 572.851 516.439 573.006 516.844C573.384 517.83 574.099 517.772 575.707 516.624ZM426.168 513.662C427.948 512.258 428.884 509.918 428.369 508.161C428.147 507.405 427.187 505.274 426.235 503.426C424.227 499.528 424.022 497.132 425.457 494.31C426.885 491.502 426.705 490.107 424.686 488.33C422.605 486.498 421.725 486.141 418.203 485.708C416.233 485.466 414.865 484.926 413.18 483.725C409.362 481.003 405.619 481.683 403.675 485.452C402.594 487.549 402.769 492.862 404.049 496.766C405.404 500.902 409.309 508.113 410.851 509.329C411.579 509.903 413.188 510.367 415.155 510.569C418.281 510.89 420.672 511.655 420.672 512.333C420.672 512.783 423.604 514.683 424.316 514.694C424.609 514.698 425.443 514.234 426.168 513.662ZM420.259 481.123C421.426 479.953 421.66 479.36 421.538 477.884C421.394 476.13 421.331 476.072 419.361 475.929C416.649 475.733 414.93 477.332 414.93 480.053C414.93 482.329 415.135 482.554 417.2 482.554C418.373 482.554 419.233 482.152 420.259 481.123ZM626.06 417.371C634.465 408.437 641.115 397.761 644.634 387.55C646.772 381.348 647.163 374.335 645.628 369.737C644.296 365.748 641.624 360.962 640.621 360.765C639.733 360.591 639.7 360.671 638.898 364.969C637.993 369.822 635.147 376.308 631.518 381.793C627.411 387.999 618.144 397.427 611.719 401.938C609.285 403.647 607.293 405.263 607.293 405.529C607.293 406.201 621.75 420.658 622.422 420.658C622.723 420.658 624.36 419.179 626.06 417.371ZM566.864 404.091C569.756 401.84 572.189 399.803 572.271 399.563C572.354 399.323 571.963 398.667 571.404 398.106C570.482 397.182 569.951 397.1 565.752 397.236L561.116 397.387L560.73 402.128C560.352 406.776 560.467 408.183 561.226 408.183C561.435 408.183 563.972 406.341 566.864 404.091ZM594.262 406.539C606.616 403.241 624.158 388.05 631.15 374.595C633.635 369.814 635.284 364.693 635.812 360.119C636.219 356.599 635.913 355.509 633.729 352.69C632.043 350.515 630.597 347.953 630.114 346.286C629.945 345.705 629.001 345.575 625.232 345.612L620.559 345.657L619.408 349.657C615.004 364.951 604.677 379.579 592.375 387.945C589.327 390.018 582.265 393.501 579.061 394.511C574.752 395.869 574.681 396.144 577.761 399.558C580.977 403.121 583.587 405.107 586.611 406.293C589.353 407.367 590.964 407.419 594.262 406.539ZM568.772 392.81C581.722 390.956 593.834 384.001 602.163 373.636C608.028 366.337 613.414 356.334 615.423 349.015C616.509 345.057 616.296 343.887 614.488 343.887C613.063 343.887 608.085 341.118 606.201 339.278C605.206 338.305 603.625 336.137 602.69 334.46C601.755 332.784 600.804 331.412 600.577 331.412C600.35 331.412 599.495 332.817 598.677 334.535C596.858 338.359 592.47 343.904 589.091 346.65C583.622 351.096 577.303 352.996 571.404 351.968C567.384 351.267 564.903 350.177 561.052 347.422C555.811 343.672 553.474 343.228 547.446 344.835C541.315 346.47 537.59 346.001 534.651 343.223C533.176 341.828 532.823 341.725 529.388 341.682C526.86 341.651 524.895 341.318 523.12 340.62C521.697 340.061 520.319 339.737 520.058 339.898C519.406 340.302 519.994 351.613 520.951 357.06C522.682 366.924 526.936 376.815 531.645 381.932C538.448 389.321 548.259 393.085 561.116 393.238C563.485 393.266 566.93 393.074 568.772 392.81ZM582.037 346.379C587.552 343.64 592.263 338.525 595.816 331.418C598.334 326.381 599.551 322.677 600.137 318.256L600.689 314.103L598.508 312.066C594.802 308.606 592.8 302.382 592.179 292.393C591.969 289.009 591.698 287.61 591.217 287.424C590.849 287.283 589.521 287.827 588.267 288.634C580.156 293.853 564.956 298.292 552.557 299.063C547.352 299.386 534.253 298.364 526.663 297.041C524.294 296.629 522.033 296.258 521.639 296.218C521.024 296.156 520.88 297.907 520.633 308.38C520.475 315.11 520.173 323.56 519.963 327.158L519.582 333.701L521.544 335.126C523.901 336.838 526.979 337.775 529.556 337.564L531.448 337.409L531.813 334.094C532.271 329.94 533.814 326.914 535.58 326.708C537.326 326.504 537.518 327.445 536.438 330.924C535.014 335.512 535.185 337.709 537.127 339.774C538.626 341.368 538.937 341.486 541.554 341.471C543.102 341.461 545.66 341.141 547.239 340.759C553.588 339.222 557.825 340.09 563.547 344.1C568.436 347.527 570.547 348.214 575.577 348.011C578.297 347.901 579.671 347.554 582.037 346.379ZM629.853 341.018C635.81 339.158 641.099 333.472 643.218 326.648C646.387 316.447 645.067 305.137 640.224 300.98C637.935 299.015 633.444 297.636 630.867 298.107C626.14 298.97 620.925 303.032 618.367 307.845C613.846 316.351 613.564 330.739 617.8 336.894C619.598 339.509 620.752 340.493 622.933 341.272C625.407 342.157 626.311 342.124 629.853 341.018ZM613.188 337.841C613.141 337.34 612.646 335.418 612.089 333.571C610.676 328.89 610.635 318.879 612.008 313.614C613.523 307.803 615.431 304.128 618.823 300.486C621.894 297.189 626.337 294.467 628.648 294.466C630.773 294.465 630.884 293.738 630.604 281.625C630.321 269.367 629.466 263.635 626.617 254.881C621.638 239.586 609.925 227.093 592.932 218.953C579.162 212.358 568.08 210.227 557.527 212.142C551.834 213.176 544.47 216.258 541.297 218.935C539.097 220.791 539.944 221.32 543.914 220.57C554.187 218.626 571.489 224.882 587.674 236.393C603.059 247.335 611.509 262.057 614.724 283.524C615.573 289.191 615.617 296.234 614.813 297.643C614.493 298.203 612.998 299.785 611.491 301.159C606.943 305.307 604.579 311.366 604.09 320.136C603.755 326.13 604.392 329.34 606.71 333.336C609.133 337.514 613.44 340.509 613.188 337.841ZM516.498 319.89C516.698 317.914 516.806 311.547 516.738 305.742L516.614 295.186L514.802 294.226L512.989 293.266L512.073 294.466C510.244 296.863 509.542 301.025 509.796 307.968C510.055 315.045 510.728 317.867 513.019 321.489C515.157 324.868 516.037 324.464 516.498 319.89ZM602.343 308.021C603.549 304.452 605.262 301.71 608.291 298.501L611.739 294.848L611.439 289.979C611.116 284.743 610.312 279.587 609.722 278.971C609.277 278.506 597.674 280.445 597.005 281.096C596.718 281.374 596.532 285.162 596.54 290.532C596.553 298.673 596.659 299.815 597.685 302.863C599.422 308.025 601.547 310.377 602.343 308.021ZM563.859 293.534C570.295 292.147 579.513 288.843 584.402 286.171C591.533 282.274 592.218 281.031 587.236 281.031C568.202 281.031 542.421 275.137 520.893 265.864L516.946 264.163L509.124 266.671C497.275 270.471 494.842 271.956 494.842 275.387C494.842 277.811 495.801 279.587 498.24 281.681C504.484 287.04 518.708 291.916 534.798 294.211C541.919 295.228 557.707 294.86 563.859 293.534ZM638.516 292.067C638.725 290.879 638.831 286.793 638.75 282.985L638.603 276.062L637.287 275.622C634.58 274.717 634.543 274.855 634.747 284.976C634.849 290.063 634.959 294.294 634.99 294.376C635.021 294.459 635.742 294.459 636.592 294.376C638.014 294.237 638.166 294.055 638.516 292.067ZM597.483 276.23C603.507 275.567 608.248 274.706 608.546 274.221C609.266 273.053 604.134 260.687 600.816 255.595C597.62 250.69 588.903 242.009 583.846 238.696C570.635 230.04 558.909 225.194 549.632 224.556C540.498 223.929 533.929 227.666 527.714 237.025C523.439 243.463 517.198 258.058 518.097 259.516C518.7 260.494 527.863 264.436 535.276 266.907C550.07 271.837 564.284 275.153 574.993 276.173C581.131 276.757 592.438 276.786 597.483 276.23ZM639.874 270.124C641.257 266.478 636.832 250.345 634.212 249.481C633.885 249.373 633.399 249.896 633.132 250.644C632.866 251.391 632.326 252.575 631.933 253.275C630.99 254.957 631.02 255.487 632.372 261.118C633.006 263.757 633.666 266.955 633.841 268.224C634.187 270.752 634.932 271.349 637.81 271.404C639.09 271.429 639.468 271.195 639.874 270.124ZM629.958 242.84C629.74 223.603 617.616 206.522 601.189 202.31C596.747 201.17 589.964 201.087 585.98 202.122C580.457 203.558 574.655 206.775 575.403 207.987C575.548 208.223 576.915 208.693 578.44 209.032C586.088 210.73 599.859 217.111 607.206 222.363C615.353 228.186 622.439 236.354 627.1 245.295C628.137 247.284 629.218 248.83 629.503 248.731C629.842 248.615 630 246.571 629.958 242.84Z" fill="#D9D9D9" stroke="white" style="fill:#D9D9D9;fill:color(display-p3 0.8510 0.8510 0.8510);fill-opacity:1;stroke:white;stroke-opacity:1;"/>
<path d="M506.991 572.326C503.341 570.095 502.2 565.994 503.693 560.463C505.824 552.572 516.038 541.87 525.653 537.456C529.059 535.893 530.491 536.026 530.491 537.907C530.491 539.125 530.088 539.494 526.906 541.187C521.695 543.959 518.02 546.733 514.155 550.812C509.709 555.505 507.277 559.831 506.931 563.66C506.693 566.291 506.801 566.748 508.195 568.997C510.403 572.558 509.854 574.077 506.991 572.326Z" fill="white" stroke="white" style="fill:white;fill-opacity:1;stroke:white;stroke-opacity:1;"/>
<path d="M551.121 321.081C549.279 319.234 550.027 314.131 552.244 313.425C553.587 312.998 555.508 314.271 555.903 315.85C556.283 317.366 555.846 320.236 555.1 321.139C554.357 322.036 552.04 322.003 551.121 321.081Z" fill="white" stroke="white" style="fill:white;fill-opacity:1;stroke:white;stroke-opacity:1;"/>
<path d="M539.291 361.924C533.282 359.606 529.599 354.614 532.174 352.277C533.333 351.226 533.148 351.099 535.686 354.699C536.917 356.445 539.112 357.686 542.051 358.298C545.185 358.95 547.679 358.338 550.982 356.108C552.849 354.847 553.568 354.596 554.255 354.964C556.305 356.065 554.547 359.025 550.661 361.015C547.674 362.545 542.064 362.993 539.291 361.924Z" fill="white" stroke="white" style="fill:white;fill-opacity:1;stroke:white;stroke-opacity:1;"/>
<path d="M529.8 317.524C528.071 315.79 527.961 311.226 529.607 309.575C531.683 307.494 534.553 310.083 534.557 314.04C534.558 315.59 534.267 316.393 533.384 317.279C531.967 318.7 531.037 318.764 529.8 317.524Z" fill="white" stroke="white" style="fill:white;fill-opacity:1;stroke:white;stroke-opacity:1;"/>
<path d="M579.3 652.882C570.365 651.928 559.102 648.771 552.815 645.458C548.403 643.133 546.077 641.069 544.353 637.948C543.1 635.68 542.936 634.924 542.958 631.538C542.98 628.31 543.198 627.28 544.328 625.061C546.121 621.536 549.43 618.5 553.923 616.257C557.376 614.534 557.603 614.327 557.341 613.138C556.673 610.1 556.437 595.472 557.017 593.046C558.153 588.299 561.648 584.616 567.815 581.668C580.357 575.674 602.97 577.043 612.176 584.354C613.238 585.197 614.73 586.903 615.492 588.146C616.822 590.312 616.992 590.419 619.622 590.738C622.931 591.14 625.858 592.747 627.725 595.186C629.808 597.906 630.344 599.494 630.617 603.755C630.976 609.351 630.003 612.008 626.298 615.555L623.446 618.286L626.314 620.948C630.148 624.507 631.382 627.331 631.134 631.979C630.805 638.142 627.971 641.874 620.794 645.6C609.348 651.542 593.235 654.37 579.3 652.882ZM602.269 647.621C608.867 646.209 616.499 643.587 619.693 641.632C622.844 639.705 626.172 636.407 626.884 634.506C628.64 629.822 625.63 624.238 619.72 621.214C616.92 619.782 615.424 620.08 614.691 622.214C612.529 628.508 605.178 635.583 597.862 638.412C592.162 640.617 586.922 641.211 581.897 640.223C572.66 638.406 564.982 632.689 560.96 624.631C559.862 622.431 558.963 620.345 558.963 619.995C558.963 618.319 556.433 618.991 552.481 621.717C546.356 625.942 544.933 632.942 549.185 637.923C552.704 642.045 563.721 646.318 575.95 648.304C582.257 649.329 595.945 648.973 602.269 647.621ZM594.266 635.382C596.34 634.725 599.315 633.359 600.878 632.346C604.308 630.123 608.797 625.222 610.408 621.942C612.176 618.34 613.466 612.607 613.819 606.783C614.194 600.596 613.927 600.264 610.355 602.466C607.311 604.342 601.398 606.493 596.286 607.583C585.705 609.84 570.507 607.609 563.135 602.717C562.138 602.055 561.087 601.659 560.799 601.837C560.15 602.24 560.633 609.904 561.614 614.744C561.988 616.592 563.181 619.905 564.263 622.108C569.955 633.682 582.337 639.16 594.266 635.382ZM620.062 615.435C621.979 614.712 624.958 611.718 626.002 609.466C626.526 608.335 626.895 606.45 626.902 604.874C626.922 599.757 623.073 594.579 619.51 594.929L618.06 595.072L617.763 602.989C617.6 607.343 617.314 611.816 617.126 612.927C616.617 615.949 617.256 616.494 620.062 615.435ZM599.383 602.754C604.088 601.341 606.336 600.331 606.336 599.63C606.336 598.418 598.454 595.682 592.412 594.796C584.532 593.641 571.313 595.807 567.308 598.911C566.398 599.616 566.398 599.644 567.287 600.334C568.383 601.184 573.016 602.766 577.197 603.717C579.4 604.218 582.334 604.362 587.674 604.228C593.996 604.07 595.724 603.853 599.383 602.754ZM565.556 595.368C578.043 589.06 594.555 588.947 607.12 595.083C608.999 596 610.708 596.751 610.918 596.751C611.678 596.751 613.514 594.642 613.514 593.77C613.514 592.301 611.77 589.324 609.994 587.76C607.769 585.801 601.901 583.626 596.048 582.59C587.261 581.036 576.115 582.241 569.278 585.484C563.838 588.064 559.55 593.306 560.865 595.768C561.562 597.074 562.304 597.011 565.556 595.368Z" fill="white" stroke="white" style="fill:white;fill-opacity:1;stroke:white;stroke-opacity:1;"/>
</svg>
